G04 (created by PCBNEW-RS274X (2012-04-29 BZR 3537)-testing) date Sat 07 Jul 2012 01:31:47 PM CEST*
G01*
G70*
G90*
%MOIN*%
G04 Gerber Fmt 3.4, Leading zero omitted, Abs format*
%FSLAX34Y34*%
G04 APERTURE LIST*
%ADD10C,0.006000*%
%ADD11R,0.090000X0.090000*%
%ADD12C,0.090000*%
%ADD13C,0.110000*%
%ADD14O,0.095000X0.105000*%
%ADD15R,0.095000X0.105000*%
G04 APERTURE END LIST*
G54D10*
G54D11*
X09000Y-17500D03*
G54D12*
X09000Y-18500D03*
X09000Y-19500D03*
X09000Y-20500D03*
X09000Y-21500D03*
X09000Y-22500D03*
X09000Y-23500D03*
X09000Y-24500D03*
X09000Y-25500D03*
X09000Y-26500D03*
X09000Y-27500D03*
X09000Y-28500D03*
X10000Y-28500D03*
X14000Y-28500D03*
X15000Y-28500D03*
X15000Y-27500D03*
X15000Y-26500D03*
X15000Y-25500D03*
X15000Y-24500D03*
X15000Y-23500D03*
X15000Y-22500D03*
X15000Y-19500D03*
X15000Y-18500D03*
X15000Y-17500D03*
X14000Y-21500D03*
X15000Y-21500D03*
X15000Y-20500D03*
X24000Y-49050D03*
G54D11*
X24000Y-51450D03*
G54D12*
X27250Y-49050D03*
G54D11*
X27250Y-51450D03*
G54D12*
X36625Y-49050D03*
G54D11*
X36625Y-51450D03*
G54D12*
X69875Y-43950D03*
G54D11*
X69875Y-41550D03*
G54D12*
X92875Y-49050D03*
G54D11*
X92875Y-51450D03*
G54D12*
X102250Y-49050D03*
G54D11*
X102250Y-51450D03*
G54D12*
X111625Y-49050D03*
G54D11*
X111625Y-51450D03*
G54D12*
X121000Y-49050D03*
G54D11*
X121000Y-51450D03*
G54D12*
X27000Y-36450D03*
G54D11*
X27000Y-34050D03*
G54D12*
X33875Y-41550D03*
G54D11*
X33875Y-43950D03*
G54D12*
X41375Y-41550D03*
G54D11*
X41375Y-43950D03*
G54D12*
X48875Y-41550D03*
G54D11*
X48875Y-43950D03*
G54D12*
X56375Y-41550D03*
G54D11*
X56375Y-43950D03*
G54D12*
X63875Y-41550D03*
G54D11*
X63875Y-43950D03*
G54D12*
X71375Y-41550D03*
G54D11*
X71375Y-43950D03*
G54D12*
X78875Y-41550D03*
G54D11*
X78875Y-43950D03*
G54D12*
X86375Y-41550D03*
G54D11*
X86375Y-43950D03*
G54D12*
X93875Y-41550D03*
G54D11*
X93875Y-43950D03*
G54D12*
X101375Y-41550D03*
G54D11*
X101375Y-43950D03*
G54D12*
X117750Y-28950D03*
G54D11*
X117750Y-26550D03*
G54D12*
X25875Y-34050D03*
G54D11*
X25875Y-36450D03*
G54D12*
X30125Y-34050D03*
G54D11*
X30125Y-36450D03*
G54D12*
X37625Y-34050D03*
G54D11*
X37625Y-36450D03*
G54D12*
X45125Y-34050D03*
G54D11*
X45125Y-36450D03*
G54D12*
X52625Y-34050D03*
G54D11*
X52625Y-36450D03*
G54D12*
X60125Y-34050D03*
G54D11*
X60125Y-36450D03*
G54D12*
X67625Y-34050D03*
G54D11*
X67625Y-36450D03*
G54D12*
X75125Y-34050D03*
G54D11*
X75125Y-36450D03*
G54D12*
X82625Y-34050D03*
G54D11*
X82625Y-36450D03*
G54D12*
X90125Y-34050D03*
G54D11*
X90125Y-36450D03*
G54D12*
X97625Y-34050D03*
G54D11*
X97625Y-36450D03*
G54D12*
X105125Y-34050D03*
G54D11*
X105125Y-36450D03*
G54D12*
X118875Y-28950D03*
G54D11*
X118875Y-26550D03*
G54D12*
X25000Y-26550D03*
G54D11*
X25000Y-28950D03*
G54D12*
X28250Y-26550D03*
G54D11*
X28250Y-28950D03*
G54D12*
X35750Y-26550D03*
G54D11*
X35750Y-28950D03*
G54D12*
X43250Y-26550D03*
G54D11*
X43250Y-28950D03*
G54D12*
X50750Y-26550D03*
G54D11*
X50750Y-28950D03*
G54D12*
X58250Y-26550D03*
G54D11*
X58250Y-28950D03*
G54D12*
X65750Y-26550D03*
G54D11*
X65750Y-28950D03*
G54D12*
X73250Y-26550D03*
G54D11*
X73250Y-28950D03*
G54D12*
X80750Y-26550D03*
G54D11*
X80750Y-28950D03*
G54D12*
X88250Y-26550D03*
G54D11*
X88250Y-28950D03*
G54D12*
X95750Y-26550D03*
G54D11*
X95750Y-28950D03*
G54D12*
X103250Y-26550D03*
G54D11*
X103250Y-28950D03*
G54D12*
X110750Y-26550D03*
G54D11*
X110750Y-28950D03*
G54D12*
X120000Y-26550D03*
G54D11*
X120000Y-28950D03*
G54D12*
X23000Y-19050D03*
G54D11*
X23000Y-21450D03*
G54D12*
X24500Y-19050D03*
G54D11*
X24500Y-21450D03*
G54D12*
X32000Y-19050D03*
G54D11*
X32000Y-21450D03*
G54D12*
X39500Y-19050D03*
G54D11*
X39500Y-21450D03*
G54D12*
X47000Y-19050D03*
G54D11*
X47000Y-21450D03*
G54D12*
X54500Y-19050D03*
G54D11*
X54500Y-21450D03*
G54D12*
X62000Y-19050D03*
G54D11*
X62000Y-21450D03*
G54D12*
X69500Y-19050D03*
G54D11*
X69500Y-21450D03*
G54D12*
X77000Y-19050D03*
G54D11*
X77000Y-21450D03*
G54D12*
X84500Y-19050D03*
G54D11*
X84500Y-21450D03*
G54D12*
X92000Y-19050D03*
G54D11*
X92000Y-21450D03*
G54D12*
X99500Y-19050D03*
G54D11*
X99500Y-21450D03*
G54D12*
X107000Y-19050D03*
G54D11*
X107000Y-21450D03*
G54D12*
X113000Y-19050D03*
G54D11*
X113000Y-21450D03*
G54D12*
X07250Y-43500D03*
G54D11*
X10250Y-43500D03*
G54D12*
X09125Y-51125D03*
G54D11*
X12125Y-51125D03*
G54D12*
X133300Y-23250D03*
G54D11*
X135700Y-23250D03*
G54D12*
X09250Y-45550D03*
G54D11*
X09250Y-47950D03*
G54D12*
X140800Y-23250D03*
G54D11*
X143200Y-23250D03*
G54D13*
X122250Y-18000D03*
X119750Y-19000D03*
X111000Y-18000D03*
X108500Y-19000D03*
X103500Y-18000D03*
X101000Y-19000D03*
X96000Y-18000D03*
X93500Y-19000D03*
X88500Y-18000D03*
X86000Y-19000D03*
X81000Y-18000D03*
X78500Y-19000D03*
X73500Y-18000D03*
X71000Y-19000D03*
X66000Y-18000D03*
X63500Y-19000D03*
X58500Y-18000D03*
X56000Y-19000D03*
X51000Y-18000D03*
X48500Y-19000D03*
X43500Y-18000D03*
X41000Y-19000D03*
X36000Y-18000D03*
X33500Y-19000D03*
X28500Y-18000D03*
X26000Y-19000D03*
X21000Y-18000D03*
X18500Y-19000D03*
X124125Y-25500D03*
X121625Y-26500D03*
X114750Y-25500D03*
X112250Y-26500D03*
X107250Y-25500D03*
X104750Y-26500D03*
X99750Y-25500D03*
X97250Y-26500D03*
X92250Y-25500D03*
X89750Y-26500D03*
X84750Y-25500D03*
X82250Y-26500D03*
X77250Y-25500D03*
X74750Y-26500D03*
X69750Y-25500D03*
X67250Y-26500D03*
X62250Y-25500D03*
X59750Y-26500D03*
X54750Y-25500D03*
X52250Y-26500D03*
X47250Y-25500D03*
X44750Y-26500D03*
X39750Y-25500D03*
X37250Y-26500D03*
X32250Y-25500D03*
X29750Y-26500D03*
X22875Y-25500D03*
X20375Y-26500D03*
X121313Y-33000D03*
X118813Y-34000D03*
X109125Y-33000D03*
X106625Y-34000D03*
X101625Y-33000D03*
X99125Y-34000D03*
X94125Y-33000D03*
X91625Y-34000D03*
X86625Y-33000D03*
X84125Y-34000D03*
X79125Y-33000D03*
X76625Y-34000D03*
X71625Y-33000D03*
X69125Y-34000D03*
X64125Y-33000D03*
X61625Y-34000D03*
X56625Y-33000D03*
X54125Y-34000D03*
X49125Y-33000D03*
X46625Y-34000D03*
X41625Y-33000D03*
X39125Y-34000D03*
X34125Y-33000D03*
X31625Y-34000D03*
X23813Y-33000D03*
X21313Y-34000D03*
X119438Y-40500D03*
X116938Y-41500D03*
X105375Y-40500D03*
X102875Y-41500D03*
X97875Y-40500D03*
X95375Y-41500D03*
X90375Y-40500D03*
X87875Y-41500D03*
X82875Y-40500D03*
X80375Y-41500D03*
X75375Y-40500D03*
X72875Y-41500D03*
X67875Y-40500D03*
X65375Y-41500D03*
X60375Y-40500D03*
X57875Y-41500D03*
X52875Y-40500D03*
X50375Y-41500D03*
X45375Y-40500D03*
X42875Y-41500D03*
X37875Y-40500D03*
X35375Y-41500D03*
X25688Y-40500D03*
X23188Y-41500D03*
X125063Y-48000D03*
X122563Y-49000D03*
X115688Y-48000D03*
X113188Y-49000D03*
X106313Y-48000D03*
X103813Y-49000D03*
X96938Y-48000D03*
X94438Y-49000D03*
X66813Y-52000D03*
X69313Y-51000D03*
X40688Y-48000D03*
X38188Y-49000D03*
X31313Y-48000D03*
X28813Y-49000D03*
X21938Y-48000D03*
X19438Y-49000D03*
G54D14*
X137750Y-25500D03*
G54D15*
X138750Y-25500D03*
G54D14*
X145250Y-25500D03*
G54D15*
X146250Y-25500D03*
M02*
