G04 (created by PCBNEW-RS274X (2012-04-29 BZR 3537)-testing) date Sat 07 Jul 2012 01:31:47 PM CEST*
G01*
G70*
G90*
%MOIN*%
G04 Gerber Fmt 3.4, Leading zero omitted, Abs format*
%FSLAX34Y34*%
G04 APERTURE LIST*
%ADD10C,0.006000*%
%ADD11C,0.008000*%
%ADD12C,0.010000*%
G04 APERTURE END LIST*
G54D10*
G54D11*
X138970Y-26000D02*
X138970Y-25000D01*
X138969Y-24980D02*
X138922Y-24928D01*
X138870Y-24881D01*
X138814Y-24838D01*
X138754Y-24800D01*
X138691Y-24767D01*
X138626Y-24740D01*
X138559Y-24719D01*
X138490Y-24704D01*
X138420Y-24695D01*
X138350Y-24691D01*
X138280Y-24695D01*
X138210Y-24704D01*
X138141Y-24719D01*
X138074Y-24740D01*
X138009Y-24767D01*
X137946Y-24800D01*
X137886Y-24838D01*
X137830Y-24881D01*
X137778Y-24928D01*
X137731Y-24980D01*
X137688Y-25036D01*
X137650Y-25096D01*
X137617Y-25159D01*
X137590Y-25224D01*
X137569Y-25291D01*
X137554Y-25360D01*
X137545Y-25430D01*
X137541Y-25500D01*
X137545Y-25570D01*
X137554Y-25640D01*
X137569Y-25709D01*
X137590Y-25776D01*
X137617Y-25841D01*
X137650Y-25904D01*
X137688Y-25964D01*
X137731Y-26020D01*
X137778Y-26072D01*
X137830Y-26119D01*
X137886Y-26162D01*
X137946Y-26200D01*
X138009Y-26233D01*
X138074Y-26260D01*
X138141Y-26281D01*
X138210Y-26296D01*
X138280Y-26305D01*
X138350Y-26309D01*
X138420Y-26305D01*
X138490Y-26296D01*
X138559Y-26281D01*
X138626Y-26260D01*
X138691Y-26233D01*
X138754Y-26200D01*
X138814Y-26162D01*
X138870Y-26119D01*
X138922Y-26072D01*
X138969Y-26020D01*
X146470Y-26000D02*
X146470Y-25000D01*
X146469Y-24980D02*
X146422Y-24928D01*
X146370Y-24881D01*
X146314Y-24838D01*
X146254Y-24800D01*
X146191Y-24767D01*
X146126Y-24740D01*
X146059Y-24719D01*
X145990Y-24704D01*
X145920Y-24695D01*
X145850Y-24691D01*
X145780Y-24695D01*
X145710Y-24704D01*
X145641Y-24719D01*
X145574Y-24740D01*
X145509Y-24767D01*
X145446Y-24800D01*
X145386Y-24838D01*
X145330Y-24881D01*
X145278Y-24928D01*
X145231Y-24980D01*
X145188Y-25036D01*
X145150Y-25096D01*
X145117Y-25159D01*
X145090Y-25224D01*
X145069Y-25291D01*
X145054Y-25360D01*
X145045Y-25430D01*
X145041Y-25500D01*
X145045Y-25570D01*
X145054Y-25640D01*
X145069Y-25709D01*
X145090Y-25776D01*
X145117Y-25841D01*
X145150Y-25904D01*
X145188Y-25964D01*
X145231Y-26020D01*
X145278Y-26072D01*
X145330Y-26119D01*
X145386Y-26162D01*
X145446Y-26200D01*
X145509Y-26233D01*
X145574Y-26260D01*
X145641Y-26281D01*
X145710Y-26296D01*
X145780Y-26305D01*
X145850Y-26309D01*
X145920Y-26305D01*
X145990Y-26296D01*
X146059Y-26281D01*
X146126Y-26260D01*
X146191Y-26233D01*
X146254Y-26200D01*
X146314Y-26162D01*
X146370Y-26119D01*
X146422Y-26072D01*
X146469Y-26020D01*
G54D12*
X12393Y-22293D02*
X12879Y-22293D01*
X12936Y-22321D01*
X12964Y-22350D01*
X12993Y-22407D01*
X12993Y-22521D01*
X12964Y-22579D01*
X12936Y-22607D01*
X12879Y-22636D01*
X12393Y-22636D01*
X12993Y-23236D02*
X12993Y-22893D01*
X12993Y-23065D02*
X12393Y-23065D01*
X12479Y-23008D01*
X12536Y-22950D01*
X12564Y-22893D01*
X10643Y-20715D02*
X10643Y-21058D01*
X11243Y-20887D02*
X10643Y-20887D01*
X10929Y-21258D02*
X10929Y-21458D01*
X11243Y-21544D02*
X11243Y-21258D01*
X10643Y-21258D01*
X10643Y-21544D01*
X10929Y-21801D02*
X10929Y-22001D01*
X11243Y-22087D02*
X11243Y-21801D01*
X10643Y-21801D01*
X10643Y-22087D01*
X11243Y-22344D02*
X10643Y-22344D01*
X11243Y-22687D01*
X10643Y-22687D01*
X11214Y-22944D02*
X11243Y-23030D01*
X11243Y-23173D01*
X11214Y-23230D01*
X11186Y-23259D01*
X11129Y-23287D01*
X11071Y-23287D01*
X11014Y-23259D01*
X10986Y-23230D01*
X10957Y-23173D01*
X10929Y-23059D01*
X10900Y-23001D01*
X10871Y-22973D01*
X10814Y-22944D01*
X10757Y-22944D01*
X10700Y-22973D01*
X10671Y-23001D01*
X10643Y-23059D01*
X10643Y-23201D01*
X10671Y-23287D01*
X10957Y-23658D02*
X11243Y-23658D01*
X10643Y-23458D02*
X10957Y-23658D01*
X10643Y-23858D01*
X10700Y-24029D02*
X10671Y-24058D01*
X10643Y-24115D01*
X10643Y-24258D01*
X10671Y-24315D01*
X10700Y-24344D01*
X10757Y-24372D01*
X10814Y-24372D01*
X10900Y-24344D01*
X11243Y-24001D01*
X11243Y-24372D01*
X11186Y-24629D02*
X11214Y-24657D01*
X11243Y-24629D01*
X11214Y-24600D01*
X11186Y-24629D01*
X11243Y-24629D01*
X10643Y-25029D02*
X10643Y-25086D01*
X10671Y-25143D01*
X10700Y-25172D01*
X10757Y-25201D01*
X10871Y-25229D01*
X11014Y-25229D01*
X11129Y-25201D01*
X11186Y-25172D01*
X11214Y-25143D01*
X11243Y-25086D01*
X11243Y-25029D01*
X11214Y-24972D01*
X11186Y-24943D01*
X11129Y-24915D01*
X11014Y-24886D01*
X10871Y-24886D01*
X10757Y-24915D01*
X10700Y-24943D01*
X10671Y-24972D01*
X10643Y-25029D01*
G54D11*
X137234Y-27183D02*
X136901Y-27183D01*
X136901Y-26483D01*
X137468Y-26817D02*
X137701Y-26817D01*
X137801Y-27183D02*
X137468Y-27183D01*
X137468Y-26483D01*
X137801Y-26483D01*
X138101Y-27183D02*
X138101Y-26483D01*
X138267Y-26483D01*
X138367Y-26517D01*
X138434Y-26583D01*
X138467Y-26650D01*
X138501Y-26783D01*
X138501Y-26883D01*
X138467Y-27017D01*
X138434Y-27083D01*
X138367Y-27150D01*
X138267Y-27183D01*
X138101Y-27183D01*
X138634Y-27250D02*
X139167Y-27250D01*
X139300Y-26983D02*
X139634Y-26983D01*
X139234Y-27183D02*
X139467Y-26483D01*
X139700Y-27183D01*
X144684Y-27183D02*
X144351Y-27183D01*
X144351Y-26483D01*
X144918Y-26817D02*
X145151Y-26817D01*
X145251Y-27183D02*
X144918Y-27183D01*
X144918Y-26483D01*
X145251Y-26483D01*
X145551Y-27183D02*
X145551Y-26483D01*
X145717Y-26483D01*
X145817Y-26517D01*
X145884Y-26583D01*
X145917Y-26650D01*
X145951Y-26783D01*
X145951Y-26883D01*
X145917Y-27017D01*
X145884Y-27083D01*
X145817Y-27150D01*
X145717Y-27183D01*
X145551Y-27183D01*
X146084Y-27250D02*
X146617Y-27250D01*
X147184Y-27117D02*
X147150Y-27150D01*
X147050Y-27183D01*
X146984Y-27183D01*
X146884Y-27150D01*
X146817Y-27083D01*
X146784Y-27017D01*
X146750Y-26883D01*
X146750Y-26783D01*
X146784Y-26650D01*
X146817Y-26583D01*
X146884Y-26517D01*
X146984Y-26483D01*
X147050Y-26483D01*
X147150Y-26517D01*
X147184Y-26550D01*
M02*
