M48
INCH,TZ
T10C0.067
T11C0.120
T12C0.157
%
T10
X018000Y-20000
X018938Y-50000
X019875Y-27500
X020813Y-35000
X022000Y-20000
X022688Y-42500
X022938Y-50000
X023875Y-27500
X024813Y-35000
X025500Y-20000
X026688Y-42500
X028313Y-50000
X029250Y-27500
X029500Y-20000
X031125Y-35000
X032313Y-50000
X033000Y-20000
X033250Y-27500
X034875Y-42500
X035125Y-35000
X036750Y-27500
X037000Y-20000
X037688Y-50000
X038625Y-35000
X038875Y-42500
X040500Y-20000
X040750Y-27500
X041688Y-50000
X042375Y-42500
X042625Y-35000
X044250Y-27500
X044500Y-20000
X046125Y-35000
X046375Y-42500
X048000Y-20000
X048250Y-27500
X049875Y-42500
X050125Y-35000
X051750Y-27500
X052000Y-20000
X053625Y-35000
X053875Y-42500
X055500Y-20000
X055750Y-27500
X057375Y-42500
X057625Y-35000
X059250Y-27500
X059500Y-20000
X061125Y-35000
X061375Y-42500
X063000Y-20000
X063250Y-27500
X064875Y-42500
X065125Y-35000
X065813Y-50000
X066750Y-27500
X067000Y-20000
X068625Y-35000
X068875Y-42500
X069813Y-50000
X070500Y-20000
X070750Y-27500
X072375Y-42500
X072625Y-35000
X074250Y-27500
X074500Y-20000
X076125Y-35000
X076375Y-42500
X078000Y-20000
X078250Y-27500
X079875Y-42500
X080125Y-35000
X081750Y-27500
X082000Y-20000
X083625Y-35000
X083875Y-42500
X085500Y-20000
X085750Y-27500
X087375Y-42500
X087625Y-35000
X089250Y-27500
X089500Y-20000
X091125Y-35000
X091375Y-42500
X093000Y-20000
X093250Y-27500
X093938Y-50000
X094875Y-42500
X095125Y-35000
X096750Y-27500
X097000Y-20000
X097938Y-50000
X098625Y-35000
X098875Y-42500
X100500Y-20000
X100750Y-27500
X102375Y-42500
X102625Y-35000
X103313Y-50000
X104250Y-27500
X104500Y-20000
X106125Y-35000
X106375Y-42500
X107313Y-50000
X108000Y-20000
X108250Y-27500
X110125Y-35000
X111750Y-27500
X112000Y-20000
X112688Y-50000
X115750Y-27500
X116438Y-42500
X116688Y-50000
X118313Y-35000
X119250Y-20000
X120438Y-42500
X121125Y-27500
X122063Y-50000
X122313Y-35000
X123250Y-20000
X125125Y-27500
X126063Y-50000
T11
X019988Y-39750
X029388Y-39750
X048113Y-52750
X087513Y-52750
X113738Y-39750
X115613Y-32250
X116550Y-17250
X123138Y-39750
X125013Y-32250
X125950Y-17250
T12
X019988Y-45750
X020000Y-20000
X020938Y-50000
X021875Y-27500
X022813Y-35000
X024688Y-42500
X027500Y-20000
X029388Y-45750
X030313Y-50000
X031250Y-27500
X033125Y-35000
X035000Y-20000
X036875Y-42500
X038750Y-27500
X039688Y-50000
X040625Y-35000
X042500Y-20000
X044375Y-42500
X046250Y-27500
X048113Y-46750
X048125Y-35000
X050000Y-20000
X051875Y-42500
X053750Y-27500
X055625Y-35000
X057500Y-20000
X059375Y-42500
X061250Y-27500
X063125Y-35000
X065000Y-20000
X066875Y-42500
X067813Y-50000
X068750Y-27500
X070625Y-35000
X072500Y-20000
X074375Y-42500
X076250Y-27500
X078125Y-35000
X080000Y-20000
X081875Y-42500
X083750Y-27500
X085625Y-35000
X087500Y-20000
X087513Y-46750
X089375Y-42500
X091250Y-27500
X093125Y-35000
X095000Y-20000
X095938Y-50000
X096875Y-42500
X098750Y-27500
X100625Y-35000
X102500Y-20000
X104375Y-42500
X105313Y-50000
X106250Y-27500
X108125Y-35000
X110000Y-20000
X113738Y-45750
X113750Y-27500
X114688Y-50000
X115613Y-38250
X116550Y-23250
X118438Y-42500
X120313Y-35000
X121250Y-20000
X123125Y-27500
X123138Y-45750
X124063Y-50000
X125013Y-38250
X125950Y-23250
M30

