M48
;DRILL file {KiCad 4.1.0-alpha+201607250105+6992~46~ubuntu16.04.1-product} date Thu Aug 25 14:34:54 2016
;FORMAT={-:-/ absolute / inch / decimal}
FMAT,2
INCH,TZ
T1C0.039
T2C0.043
T3C0.059
%
G90
G05
M72
T1
X2.0812Y-3.8281
X2.2312Y-3.7
X2.3281Y-1.8
X2.3281Y-2.2
X2.3312Y-3.7
X2.4219Y-1.8
X2.4219Y-2.2
X2.4219Y-4.8
X2.4219Y-5.2
X2.4812Y-3.8281
X2.5156Y-2.55
X2.5156Y-2.95
X2.6094Y-3.3
X2.6094Y-3.7
X2.7031Y-4.8
X2.7031Y-5.2
X2.7969Y-2.55
X2.7969Y-2.95
X2.9844Y-3.3
X2.9844Y-3.7
X3.1719Y-1.8
X3.1719Y-2.2
X3.1719Y-4.05
X3.1719Y-4.45
X3.3594Y-4.05
X3.3594Y-4.45
X3.5469Y-2.55
X3.5469Y-2.95
X3.6406Y-4.8
X3.6406Y-5.2
X3.7344Y-3.3
X3.7344Y-3.7
X3.9219Y-1.8
X3.9219Y-2.2
X4.1094Y-4.05
X4.1094Y-4.45
X4.2969Y-2.55
X4.2969Y-2.95
X4.4844Y-3.3
X4.4844Y-3.7
X4.4844Y-4.8
X4.4844Y-5.2
X4.6719Y-1.8
X4.6719Y-2.2
X4.8594Y-4.05
X4.8594Y-4.45
X5.0469Y-2.55
X5.0469Y-2.95
X5.2344Y-3.3
X5.2344Y-3.7
X5.4219Y-1.8
X5.4219Y-2.2
X5.6094Y-4.05
X5.6094Y-4.45
X5.7969Y-2.55
X5.7969Y-2.95
X5.9844Y-3.3
X5.9844Y-3.7
X6.1719Y-1.8
X6.1719Y-2.2
X6.3594Y-4.05
X6.3594Y-4.45
X6.5469Y-2.55
X6.5469Y-2.95
X6.7344Y-3.3
X6.7344Y-3.7
X6.9219Y-1.8
X6.9219Y-2.2
X7.1094Y-4.05
X7.1094Y-4.45
X7.2969Y-2.55
X7.2969Y-2.95
X7.4844Y-3.3
X7.4844Y-3.7
X7.6719Y-1.8
X7.6719Y-2.2
X7.8594Y-4.05
X7.8594Y-4.45
X8.0469Y-2.55
X8.0469Y-2.95
X8.2344Y-3.3
X8.2344Y-3.7
X8.4219Y-1.8
X8.4219Y-2.2
X8.6094Y-4.05
X8.6094Y-4.45
X8.7969Y-2.55
X8.7969Y-2.95
X8.9844Y-3.3
X8.9844Y-3.7
X9.1719Y-1.8
X9.1719Y-2.2
X9.2656Y-4.8
X9.2656Y-5.2
X9.3594Y-4.05
X9.3594Y-4.45
X9.5469Y-2.55
X9.5469Y-2.95
X9.7344Y-3.3
X9.7344Y-3.7
X9.9219Y-1.8
X9.9219Y-2.2
X10.05Y-2.3281
X10.1094Y-4.05
X10.1094Y-4.45
X10.2Y-2.2
X10.2031Y-4.8
X10.2031Y-5.2
X10.2969Y-2.55
X10.2969Y-2.95
X10.3Y-2.2
X10.45Y-2.3281
X10.4844Y-3.3
X10.4844Y-3.7
X10.6719Y-1.8
X10.6719Y-2.2
X10.8Y-2.3281
X10.95Y-2.2
X11.0469Y-2.55
X11.0469Y-2.95
X11.05Y-2.2
X11.1406Y-4.05
X11.1406Y-4.45
X11.1406Y-4.8
X11.1406Y-5.2
X11.2Y-2.3281
X11.2344Y-3.3
X11.2344Y-3.7
X11.3281Y-1.8
X11.3281Y-2.2
X11.9844Y-2.55
X11.9844Y-2.95
X12.0781Y-4.8
X12.0781Y-5.2
T2
X0.4813Y-2.7625
X0.4813Y-2.8625
X0.4813Y-2.9625
X0.4813Y-3.0625
X0.4813Y-3.1625
X0.4813Y-3.2625
X0.4813Y-3.3625
X0.4813Y-3.4625
X0.4813Y-3.5625
X0.4813Y-3.6625
X0.4813Y-3.7625
X0.4813Y-3.8625
X0.5812Y-2.7625
X0.5812Y-3.4625
X0.6813Y-2.7625
X0.7812Y-2.7625
X0.8812Y-2.7625
X0.9812Y-2.7625
X0.9812Y-3.4625
X1.0813Y-2.7625
X1.0813Y-2.8625
X1.0813Y-2.9625
X1.0813Y-3.0625
X1.0813Y-3.1625
X1.0813Y-3.2625
X1.0813Y-3.3625
X1.0813Y-3.4625
X1.0813Y-3.5625
X1.0813Y-3.6625
X1.0813Y-3.7625
X1.0813Y-3.8625
T3
X1.85Y-1.9
X1.9437Y-4.9
X2.0375Y-2.65
X2.1Y-1.8
X2.1313Y-3.4
X2.1938Y-4.8
X2.2875Y-2.55
X2.3188Y-4.15
X2.3813Y-3.3
X2.5688Y-4.05
X2.6Y-1.9
X2.85Y-1.8
X2.8813Y-4.9
X2.975Y-2.65
X3.1313Y-4.8
X3.1625Y-3.4
X3.225Y-2.55
X3.35Y-1.9
X3.4125Y-3.3
X3.5375Y-4.15
X3.6Y-1.8
X3.725Y-2.65
X3.7875Y-4.05
X3.8188Y-4.9
X3.9125Y-3.4
X3.975Y-2.55
X4.0687Y-4.8
X4.1Y-1.9
X4.1625Y-3.3
X4.2875Y-4.15
X4.35Y-1.8
X4.475Y-2.65
X4.5375Y-4.05
X4.6625Y-3.4
X4.725Y-2.55
X4.85Y-1.9
X4.9125Y-3.3
X5.0375Y-4.15
X5.1Y-1.8
X5.225Y-2.65
X5.2875Y-4.05
X5.4125Y-3.4
X5.475Y-2.55
X5.6Y-1.9
X5.6625Y-3.3
X5.7875Y-4.15
X5.85Y-1.8
X5.975Y-2.65
X6.0375Y-4.05
X6.1625Y-3.4
X6.225Y-2.55
X6.35Y-1.9
X6.4125Y-3.3
X6.5375Y-4.15
X6.6Y-1.8
X6.6312Y-4.9
X6.725Y-2.65
X6.7875Y-4.05
X6.8812Y-4.8
X6.9125Y-3.4
X6.975Y-2.55
X7.1Y-1.9
X7.1625Y-3.3
X7.2875Y-4.15
X7.35Y-1.8
X7.475Y-2.65
X7.5375Y-4.05
X7.6625Y-3.4
X7.725Y-2.55
X7.85Y-1.9
X7.9125Y-3.3
X8.0375Y-4.15
X8.1Y-1.8
X8.225Y-2.65
X8.2875Y-4.05
X8.4125Y-3.4
X8.475Y-2.55
X8.6Y-1.9
X8.6625Y-3.3
X8.7875Y-4.15
X8.85Y-1.8
X8.975Y-2.65
X9.0375Y-4.05
X9.1625Y-3.4
X9.225Y-2.55
X9.35Y-1.9
X9.4125Y-3.3
X9.4437Y-4.9
X9.5375Y-4.15
X9.6Y-1.8
X9.6937Y-4.8
X9.725Y-2.65
X9.7875Y-4.05
X9.9125Y-3.4
X9.975Y-2.55
X10.1Y-1.9
X10.1625Y-3.3
X10.2875Y-4.15
X10.35Y-1.8
X10.3812Y-4.9
X10.475Y-2.65
X10.5375Y-4.05
X10.6312Y-4.8
X10.6625Y-3.4
X10.725Y-2.55
X10.85Y-1.9
X10.9125Y-3.3
X11.1Y-1.8
X11.225Y-2.65
X11.3187Y-4.9
X11.475Y-2.55
X11.5687Y-4.8
X11.6937Y-4.15
X11.8812Y-3.4
X11.9437Y-4.05
X11.975Y-1.9
X12.1312Y-3.3
X12.1625Y-2.65
X12.225Y-1.8
X12.2562Y-4.9
X12.4125Y-2.55
X12.5062Y-4.8
T0
M30
