M48
INCH,TZ
T1C0.039
T2C0.059
%
G90
G05
T1
X7250Y-43500
X9000Y-17500
X9000Y-18500
X9000Y-19500
X9000Y-20500
X9000Y-21500
X9000Y-22500
X9000Y-23500
X9000Y-24500
X9000Y-25500
X9000Y-26500
X9000Y-27500
X9000Y-28500
X9125Y-51125
X9250Y-45550
X9250Y-47950
X10000Y-28500
X10250Y-43500
X12125Y-51125
X14000Y-21500
X14000Y-28500
X15000Y-17500
X15000Y-18500
X15000Y-19500
X15000Y-20500
X15000Y-21500
X15000Y-22500
X15000Y-23500
X15000Y-24500
X15000Y-25500
X15000Y-26500
X15000Y-27500
X15000Y-28500
X23000Y-19050
X23000Y-21450
X24000Y-49050
X24000Y-51450
X24500Y-19050
X24500Y-21450
X25000Y-26550
X25000Y-28950
X25875Y-34050
X25875Y-36450
X27000Y-34050
X27000Y-36450
X27250Y-49050
X27250Y-51450
X28250Y-26550
X28250Y-28950
X30125Y-34050
X30125Y-36450
X32000Y-19050
X32000Y-21450
X33875Y-41550
X33875Y-43950
X35750Y-26550
X35750Y-28950
X36625Y-49050
X36625Y-51450
X37625Y-34050
X37625Y-36450
X39500Y-19050
X39500Y-21450
X41375Y-41550
X41375Y-43950
X43250Y-26550
X43250Y-28950
X45125Y-34050
X45125Y-36450
X47000Y-19050
X47000Y-21450
X48875Y-41550
X48875Y-43950
X50750Y-26550
X50750Y-28950
X52625Y-34050
X52625Y-36450
X54500Y-19050
X54500Y-21450
X56375Y-41550
X56375Y-43950
X58250Y-26550
X58250Y-28950
X60125Y-34050
X60125Y-36450
X62000Y-19050
X62000Y-21450
X63875Y-41550
X63875Y-43950
X65750Y-26550
X65750Y-28950
X67625Y-34050
X67625Y-36450
X69500Y-19050
X69500Y-21450
X69875Y-41550
X69875Y-43950
X71375Y-41550
X71375Y-43950
X73250Y-26550
X73250Y-28950
X75125Y-34050
X75125Y-36450
X77000Y-19050
X77000Y-21450
X78875Y-41550
X78875Y-43950
X80750Y-26550
X80750Y-28950
X82625Y-34050
X82625Y-36450
X84500Y-19050
X84500Y-21450
X86375Y-41550
X86375Y-43950
X88250Y-26550
X88250Y-28950
X90125Y-34050
X90125Y-36450
X92000Y-19050
X92000Y-21450
X92875Y-49050
X92875Y-51450
X93875Y-41550
X93875Y-43950
X95750Y-26550
X95750Y-28950
X97625Y-34050
X97625Y-36450
X99500Y-19050
X99500Y-21450
X101375Y-41550
X101375Y-43950
X102250Y-49050
X102250Y-51450
X103250Y-26550
X103250Y-28950
X105125Y-34050
X105125Y-36450
X107000Y-19050
X107000Y-21450
X110750Y-26550
X110750Y-28950
X111625Y-49050
X111625Y-51450
X113000Y-19050
X113000Y-21450
X117750Y-26550
X117750Y-28950
X118875Y-26550
X118875Y-28950
X120000Y-26550
X120000Y-28950
X121000Y-49050
X121000Y-51450
X133300Y-23250
X135700Y-23250
X137750Y-25500
X138750Y-25500
X140800Y-23250
X143200Y-23250
X145250Y-25500
X146250Y-25500
T2
X18500Y-19000
X19438Y-49000
X20375Y-26500
X21000Y-18000
X21313Y-34000
X21938Y-48000
X22875Y-25500
X23188Y-41500
X23813Y-33000
X25688Y-40500
X26000Y-19000
X28500Y-18000
X28813Y-49000
X29750Y-26500
X31313Y-48000
X31625Y-34000
X32250Y-25500
X33500Y-19000
X34125Y-33000
X35375Y-41500
X36000Y-18000
X37250Y-26500
X37875Y-40500
X38188Y-49000
X39125Y-34000
X39750Y-25500
X40688Y-48000
X41000Y-19000
X41625Y-33000
X42875Y-41500
X43500Y-18000
X44750Y-26500
X45375Y-40500
X46625Y-34000
X47250Y-25500
X48500Y-19000
X49125Y-33000
X50375Y-41500
X51000Y-18000
X52250Y-26500
X52875Y-40500
X54125Y-34000
X54750Y-25500
X56000Y-19000
X56625Y-33000
X57875Y-41500
X58500Y-18000
X59750Y-26500
X60375Y-40500
X61625Y-34000
X62250Y-25500
X63500Y-19000
X64125Y-33000
X65375Y-41500
X66000Y-18000
X66813Y-52000
X67250Y-26500
X67875Y-40500
X69125Y-34000
X69313Y-51000
X69750Y-25500
X71000Y-19000
X71625Y-33000
X72875Y-41500
X73500Y-18000
X74750Y-26500
X75375Y-40500
X76625Y-34000
X77250Y-25500
X78500Y-19000
X79125Y-33000
X80375Y-41500
X81000Y-18000
X82250Y-26500
X82875Y-40500
X84125Y-34000
X84750Y-25500
X86000Y-19000
X86625Y-33000
X87875Y-41500
X88500Y-18000
X89750Y-26500
X90375Y-40500
X91625Y-34000
X92250Y-25500
X93500Y-19000
X94125Y-33000
X94438Y-49000
X95375Y-41500
X96000Y-18000
X96938Y-48000
X97250Y-26500
X97875Y-40500
X99125Y-34000
X99750Y-25500
X101000Y-19000
X101625Y-33000
X102875Y-41500
X103500Y-18000
X103813Y-49000
X104750Y-26500
X105375Y-40500
X106313Y-48000
X106625Y-34000
X107250Y-25500
X108500Y-19000
X109125Y-33000
X111000Y-18000
X112250Y-26500
X113188Y-49000
X114750Y-25500
X115688Y-48000
X116938Y-41500
X118813Y-34000
X119438Y-40500
X119750Y-19000
X121313Y-33000
X121625Y-26500
X122250Y-18000
X122563Y-49000
X124125Y-25500
X125063Y-48000
T0
M30
