G04 (created by PCBNEW-RS274X (2012-04-29 BZR 3537)-testing) date Sat 07 Jul 2012 01:31:47 PM CEST*
G01*
G70*
G90*
%MOIN*%
G04 Gerber Fmt 3.4, Leading zero omitted, Abs format*
%FSLAX34Y34*%
G04 APERTURE LIST*
%ADD10C,0.006000*%
G04 APERTURE END LIST*
G54D10*
X118500Y-17250D02*
X124000Y-17250D01*
X124000Y-17250D02*
X124000Y-18080D01*
X124000Y-18080D02*
X124640Y-18080D01*
X124640Y-18080D02*
X124640Y-17760D01*
X124640Y-17760D02*
X127260Y-17760D01*
X127260Y-17760D02*
X127260Y-19100D01*
X127260Y-19100D02*
X127600Y-19100D01*
X127600Y-19100D02*
X127600Y-20200D01*
X127600Y-20200D02*
X127260Y-20200D01*
X127260Y-20200D02*
X127260Y-22600D01*
X127260Y-22600D02*
X126850Y-22600D01*
X126850Y-22600D02*
X126850Y-23060D01*
X126850Y-23060D02*
X125050Y-23060D01*
X125050Y-23060D02*
X125050Y-22600D01*
X125050Y-22600D02*
X124640Y-22600D01*
X124640Y-22600D02*
X124640Y-22290D01*
X124640Y-22290D02*
X124000Y-22290D01*
X124000Y-22290D02*
X124000Y-22750D01*
X124000Y-22750D02*
X118500Y-22750D01*
X118500Y-22750D02*
X118500Y-22290D01*
X118500Y-22290D02*
X117860Y-22290D01*
X117860Y-22290D02*
X117860Y-22600D01*
X117860Y-22600D02*
X117450Y-22600D01*
X117450Y-22600D02*
X117450Y-23060D01*
X117450Y-23060D02*
X115650Y-23060D01*
X115650Y-23060D02*
X115650Y-22600D01*
X115650Y-22600D02*
X115240Y-22600D01*
X115240Y-22600D02*
X115240Y-20200D01*
X115240Y-20200D02*
X114900Y-20200D01*
X114900Y-20200D02*
X114900Y-19100D01*
X114900Y-19100D02*
X115240Y-19100D01*
X115240Y-19100D02*
X115240Y-17760D01*
X115240Y-17760D02*
X117860Y-17760D01*
X117860Y-17760D02*
X117860Y-18080D01*
X117860Y-18080D02*
X118500Y-18080D01*
X118500Y-18080D02*
X118500Y-17250D01*
X107250Y-17250D02*
X112750Y-17250D01*
X112750Y-17250D02*
X112750Y-22750D01*
X112750Y-22750D02*
X107250Y-22750D01*
X107250Y-22750D02*
X107250Y-17250D01*
X99750Y-17250D02*
X105250Y-17250D01*
X105250Y-17250D02*
X105250Y-22750D01*
X105250Y-22750D02*
X99750Y-22750D01*
X99750Y-22750D02*
X99750Y-17250D01*
X92250Y-17250D02*
X97750Y-17250D01*
X97750Y-17250D02*
X97750Y-22750D01*
X97750Y-22750D02*
X92250Y-22750D01*
X92250Y-22750D02*
X92250Y-17250D01*
X84750Y-17250D02*
X90250Y-17250D01*
X90250Y-17250D02*
X90250Y-22750D01*
X90250Y-22750D02*
X84750Y-22750D01*
X84750Y-22750D02*
X84750Y-17250D01*
X77250Y-17250D02*
X82750Y-17250D01*
X82750Y-17250D02*
X82750Y-22750D01*
X82750Y-22750D02*
X77250Y-22750D01*
X77250Y-22750D02*
X77250Y-17250D01*
X69750Y-17250D02*
X75250Y-17250D01*
X75250Y-17250D02*
X75250Y-22750D01*
X75250Y-22750D02*
X69750Y-22750D01*
X69750Y-22750D02*
X69750Y-17250D01*
X62250Y-17250D02*
X67750Y-17250D01*
X67750Y-17250D02*
X67750Y-22750D01*
X67750Y-22750D02*
X62250Y-22750D01*
X62250Y-22750D02*
X62250Y-17250D01*
X54750Y-17250D02*
X60250Y-17250D01*
X60250Y-17250D02*
X60250Y-22750D01*
X60250Y-22750D02*
X54750Y-22750D01*
X54750Y-22750D02*
X54750Y-17250D01*
X47250Y-17250D02*
X52750Y-17250D01*
X52750Y-17250D02*
X52750Y-22750D01*
X52750Y-22750D02*
X47250Y-22750D01*
X47250Y-22750D02*
X47250Y-17250D01*
X39750Y-17250D02*
X45250Y-17250D01*
X45250Y-17250D02*
X45250Y-22750D01*
X45250Y-22750D02*
X39750Y-22750D01*
X39750Y-22750D02*
X39750Y-17250D01*
X32250Y-17250D02*
X37750Y-17250D01*
X37750Y-17250D02*
X37750Y-22750D01*
X37750Y-22750D02*
X32250Y-22750D01*
X32250Y-22750D02*
X32250Y-17250D01*
X24750Y-17250D02*
X30250Y-17250D01*
X30250Y-17250D02*
X30250Y-22750D01*
X30250Y-22750D02*
X24750Y-22750D01*
X24750Y-22750D02*
X24750Y-17250D01*
X17250Y-17250D02*
X22750Y-17250D01*
X22750Y-17250D02*
X22750Y-22750D01*
X22750Y-22750D02*
X17250Y-22750D01*
X17250Y-22750D02*
X17250Y-17250D01*
X120375Y-24750D02*
X125875Y-24750D01*
X125875Y-24750D02*
X125875Y-30250D01*
X125875Y-30250D02*
X120375Y-30250D01*
X120375Y-30250D02*
X120375Y-24750D01*
X111000Y-24750D02*
X116500Y-24750D01*
X116500Y-24750D02*
X116500Y-30250D01*
X116500Y-30250D02*
X111000Y-30250D01*
X111000Y-30250D02*
X111000Y-24750D01*
X103500Y-24750D02*
X109000Y-24750D01*
X109000Y-24750D02*
X109000Y-30250D01*
X109000Y-30250D02*
X103500Y-30250D01*
X103500Y-30250D02*
X103500Y-24750D01*
X96000Y-24750D02*
X101500Y-24750D01*
X101500Y-24750D02*
X101500Y-30250D01*
X101500Y-30250D02*
X96000Y-30250D01*
X96000Y-30250D02*
X96000Y-24750D01*
X88500Y-24750D02*
X94000Y-24750D01*
X94000Y-24750D02*
X94000Y-30250D01*
X94000Y-30250D02*
X88500Y-30250D01*
X88500Y-30250D02*
X88500Y-24750D01*
X81000Y-24750D02*
X86500Y-24750D01*
X86500Y-24750D02*
X86500Y-30250D01*
X86500Y-30250D02*
X81000Y-30250D01*
X81000Y-30250D02*
X81000Y-24750D01*
X73500Y-24750D02*
X79000Y-24750D01*
X79000Y-24750D02*
X79000Y-30250D01*
X79000Y-30250D02*
X73500Y-30250D01*
X73500Y-30250D02*
X73500Y-24750D01*
X66000Y-24750D02*
X71500Y-24750D01*
X71500Y-24750D02*
X71500Y-30250D01*
X71500Y-30250D02*
X66000Y-30250D01*
X66000Y-30250D02*
X66000Y-24750D01*
X58500Y-24750D02*
X64000Y-24750D01*
X64000Y-24750D02*
X64000Y-30250D01*
X64000Y-30250D02*
X58500Y-30250D01*
X58500Y-30250D02*
X58500Y-24750D01*
X51000Y-24750D02*
X56500Y-24750D01*
X56500Y-24750D02*
X56500Y-30250D01*
X56500Y-30250D02*
X51000Y-30250D01*
X51000Y-30250D02*
X51000Y-24750D01*
X43500Y-24750D02*
X49000Y-24750D01*
X49000Y-24750D02*
X49000Y-30250D01*
X49000Y-30250D02*
X43500Y-30250D01*
X43500Y-30250D02*
X43500Y-24750D01*
X36000Y-24750D02*
X41500Y-24750D01*
X41500Y-24750D02*
X41500Y-30250D01*
X41500Y-30250D02*
X36000Y-30250D01*
X36000Y-30250D02*
X36000Y-24750D01*
X28500Y-24750D02*
X34000Y-24750D01*
X34000Y-24750D02*
X34000Y-30250D01*
X34000Y-30250D02*
X28500Y-30250D01*
X28500Y-30250D02*
X28500Y-24750D01*
X19125Y-24750D02*
X24625Y-24750D01*
X24625Y-24750D02*
X24625Y-30250D01*
X24625Y-30250D02*
X19125Y-30250D01*
X19125Y-30250D02*
X19125Y-24750D01*
X117563Y-32250D02*
X123063Y-32250D01*
X123063Y-32250D02*
X123063Y-33080D01*
X123063Y-33080D02*
X123703Y-33080D01*
X123703Y-33080D02*
X123703Y-32760D01*
X123703Y-32760D02*
X126323Y-32760D01*
X126323Y-32760D02*
X126323Y-34100D01*
X126323Y-34100D02*
X126663Y-34100D01*
X126663Y-34100D02*
X126663Y-35200D01*
X126663Y-35200D02*
X126323Y-35200D01*
X126323Y-35200D02*
X126323Y-37600D01*
X126323Y-37600D02*
X125913Y-37600D01*
X125913Y-37600D02*
X125913Y-38060D01*
X125913Y-38060D02*
X124113Y-38060D01*
X124113Y-38060D02*
X124113Y-37600D01*
X124113Y-37600D02*
X123703Y-37600D01*
X123703Y-37600D02*
X123703Y-37290D01*
X123703Y-37290D02*
X123063Y-37290D01*
X123063Y-37290D02*
X123063Y-37750D01*
X123063Y-37750D02*
X117563Y-37750D01*
X117563Y-37750D02*
X117563Y-37290D01*
X117563Y-37290D02*
X116923Y-37290D01*
X116923Y-37290D02*
X116923Y-37600D01*
X116923Y-37600D02*
X116513Y-37600D01*
X116513Y-37600D02*
X116513Y-38060D01*
X116513Y-38060D02*
X114713Y-38060D01*
X114713Y-38060D02*
X114713Y-37600D01*
X114713Y-37600D02*
X114303Y-37600D01*
X114303Y-37600D02*
X114303Y-35200D01*
X114303Y-35200D02*
X113963Y-35200D01*
X113963Y-35200D02*
X113963Y-34100D01*
X113963Y-34100D02*
X114303Y-34100D01*
X114303Y-34100D02*
X114303Y-32760D01*
X114303Y-32760D02*
X116923Y-32760D01*
X116923Y-32760D02*
X116923Y-33080D01*
X116923Y-33080D02*
X117563Y-33080D01*
X117563Y-33080D02*
X117563Y-32250D01*
X105375Y-32250D02*
X110875Y-32250D01*
X110875Y-32250D02*
X110875Y-37750D01*
X110875Y-37750D02*
X105375Y-37750D01*
X105375Y-37750D02*
X105375Y-32250D01*
X97875Y-32250D02*
X103375Y-32250D01*
X103375Y-32250D02*
X103375Y-37750D01*
X103375Y-37750D02*
X97875Y-37750D01*
X97875Y-37750D02*
X97875Y-32250D01*
X90375Y-32250D02*
X95875Y-32250D01*
X95875Y-32250D02*
X95875Y-37750D01*
X95875Y-37750D02*
X90375Y-37750D01*
X90375Y-37750D02*
X90375Y-32250D01*
X82875Y-32250D02*
X88375Y-32250D01*
X88375Y-32250D02*
X88375Y-37750D01*
X88375Y-37750D02*
X82875Y-37750D01*
X82875Y-37750D02*
X82875Y-32250D01*
X75375Y-32250D02*
X80875Y-32250D01*
X80875Y-32250D02*
X80875Y-37750D01*
X80875Y-37750D02*
X75375Y-37750D01*
X75375Y-37750D02*
X75375Y-32250D01*
X67875Y-32250D02*
X73375Y-32250D01*
X73375Y-32250D02*
X73375Y-37750D01*
X73375Y-37750D02*
X67875Y-37750D01*
X67875Y-37750D02*
X67875Y-32250D01*
X60375Y-32250D02*
X65875Y-32250D01*
X65875Y-32250D02*
X65875Y-37750D01*
X65875Y-37750D02*
X60375Y-37750D01*
X60375Y-37750D02*
X60375Y-32250D01*
X52875Y-32250D02*
X58375Y-32250D01*
X58375Y-32250D02*
X58375Y-37750D01*
X58375Y-37750D02*
X52875Y-37750D01*
X52875Y-37750D02*
X52875Y-32250D01*
X45375Y-32250D02*
X50875Y-32250D01*
X50875Y-32250D02*
X50875Y-37750D01*
X50875Y-37750D02*
X45375Y-37750D01*
X45375Y-37750D02*
X45375Y-32250D01*
X37875Y-32250D02*
X43375Y-32250D01*
X43375Y-32250D02*
X43375Y-37750D01*
X43375Y-37750D02*
X37875Y-37750D01*
X37875Y-37750D02*
X37875Y-32250D01*
X30375Y-32250D02*
X35875Y-32250D01*
X35875Y-32250D02*
X35875Y-37750D01*
X35875Y-37750D02*
X30375Y-37750D01*
X30375Y-37750D02*
X30375Y-32250D01*
X20063Y-32250D02*
X25563Y-32250D01*
X25563Y-32250D02*
X25563Y-37750D01*
X25563Y-37750D02*
X20063Y-37750D01*
X20063Y-37750D02*
X20063Y-32250D01*
X115688Y-39750D02*
X121188Y-39750D01*
X121188Y-39750D02*
X121188Y-40580D01*
X121188Y-40580D02*
X121828Y-40580D01*
X121828Y-40580D02*
X121828Y-40260D01*
X121828Y-40260D02*
X124448Y-40260D01*
X124448Y-40260D02*
X124448Y-41600D01*
X124448Y-41600D02*
X124788Y-41600D01*
X124788Y-41600D02*
X124788Y-42700D01*
X124788Y-42700D02*
X124448Y-42700D01*
X124448Y-42700D02*
X124448Y-45100D01*
X124448Y-45100D02*
X124038Y-45100D01*
X124038Y-45100D02*
X124038Y-45560D01*
X124038Y-45560D02*
X122238Y-45560D01*
X122238Y-45560D02*
X122238Y-45100D01*
X122238Y-45100D02*
X121828Y-45100D01*
X121828Y-45100D02*
X121828Y-44790D01*
X121828Y-44790D02*
X121188Y-44790D01*
X121188Y-44790D02*
X121188Y-45250D01*
X121188Y-45250D02*
X115688Y-45250D01*
X115688Y-45250D02*
X115688Y-44790D01*
X115688Y-44790D02*
X115048Y-44790D01*
X115048Y-44790D02*
X115048Y-45100D01*
X115048Y-45100D02*
X114638Y-45100D01*
X114638Y-45100D02*
X114638Y-45560D01*
X114638Y-45560D02*
X112838Y-45560D01*
X112838Y-45560D02*
X112838Y-45100D01*
X112838Y-45100D02*
X112428Y-45100D01*
X112428Y-45100D02*
X112428Y-42700D01*
X112428Y-42700D02*
X112088Y-42700D01*
X112088Y-42700D02*
X112088Y-41600D01*
X112088Y-41600D02*
X112428Y-41600D01*
X112428Y-41600D02*
X112428Y-40260D01*
X112428Y-40260D02*
X115048Y-40260D01*
X115048Y-40260D02*
X115048Y-40580D01*
X115048Y-40580D02*
X115688Y-40580D01*
X115688Y-40580D02*
X115688Y-39750D01*
X101625Y-39750D02*
X107125Y-39750D01*
X107125Y-39750D02*
X107125Y-45250D01*
X107125Y-45250D02*
X101625Y-45250D01*
X101625Y-45250D02*
X101625Y-39750D01*
X94125Y-39750D02*
X99625Y-39750D01*
X99625Y-39750D02*
X99625Y-45250D01*
X99625Y-45250D02*
X94125Y-45250D01*
X94125Y-45250D02*
X94125Y-39750D01*
X86625Y-39750D02*
X92125Y-39750D01*
X92125Y-39750D02*
X92125Y-45250D01*
X92125Y-45250D02*
X86625Y-45250D01*
X86625Y-45250D02*
X86625Y-39750D01*
X79125Y-39750D02*
X84625Y-39750D01*
X84625Y-39750D02*
X84625Y-45250D01*
X84625Y-45250D02*
X79125Y-45250D01*
X79125Y-45250D02*
X79125Y-39750D01*
X71625Y-39750D02*
X77125Y-39750D01*
X77125Y-39750D02*
X77125Y-45250D01*
X77125Y-45250D02*
X71625Y-45250D01*
X71625Y-45250D02*
X71625Y-39750D01*
X64125Y-39750D02*
X69625Y-39750D01*
X69625Y-39750D02*
X69625Y-45250D01*
X69625Y-45250D02*
X64125Y-45250D01*
X64125Y-45250D02*
X64125Y-39750D01*
X56625Y-39750D02*
X62125Y-39750D01*
X62125Y-39750D02*
X62125Y-45250D01*
X62125Y-45250D02*
X56625Y-45250D01*
X56625Y-45250D02*
X56625Y-39750D01*
X49125Y-39750D02*
X54625Y-39750D01*
X54625Y-39750D02*
X54625Y-45250D01*
X54625Y-45250D02*
X49125Y-45250D01*
X49125Y-45250D02*
X49125Y-39750D01*
X41625Y-39750D02*
X47125Y-39750D01*
X47125Y-39750D02*
X47125Y-45250D01*
X47125Y-45250D02*
X41625Y-45250D01*
X41625Y-45250D02*
X41625Y-39750D01*
X34125Y-39750D02*
X39625Y-39750D01*
X39625Y-39750D02*
X39625Y-45250D01*
X39625Y-45250D02*
X34125Y-45250D01*
X34125Y-45250D02*
X34125Y-39750D01*
X21938Y-39750D02*
X27438Y-39750D01*
X27438Y-39750D02*
X27438Y-40580D01*
X27438Y-40580D02*
X28078Y-40580D01*
X28078Y-40580D02*
X28078Y-40260D01*
X28078Y-40260D02*
X30698Y-40260D01*
X30698Y-40260D02*
X30698Y-41600D01*
X30698Y-41600D02*
X31038Y-41600D01*
X31038Y-41600D02*
X31038Y-42700D01*
X31038Y-42700D02*
X30698Y-42700D01*
X30698Y-42700D02*
X30698Y-45100D01*
X30698Y-45100D02*
X30288Y-45100D01*
X30288Y-45100D02*
X30288Y-45560D01*
X30288Y-45560D02*
X28488Y-45560D01*
X28488Y-45560D02*
X28488Y-45100D01*
X28488Y-45100D02*
X28078Y-45100D01*
X28078Y-45100D02*
X28078Y-44790D01*
X28078Y-44790D02*
X27438Y-44790D01*
X27438Y-44790D02*
X27438Y-45250D01*
X27438Y-45250D02*
X21938Y-45250D01*
X21938Y-45250D02*
X21938Y-44790D01*
X21938Y-44790D02*
X21298Y-44790D01*
X21298Y-44790D02*
X21298Y-45100D01*
X21298Y-45100D02*
X20888Y-45100D01*
X20888Y-45100D02*
X20888Y-45560D01*
X20888Y-45560D02*
X19088Y-45560D01*
X19088Y-45560D02*
X19088Y-45100D01*
X19088Y-45100D02*
X18678Y-45100D01*
X18678Y-45100D02*
X18678Y-42700D01*
X18678Y-42700D02*
X18338Y-42700D01*
X18338Y-42700D02*
X18338Y-41600D01*
X18338Y-41600D02*
X18678Y-41600D01*
X18678Y-41600D02*
X18678Y-40260D01*
X18678Y-40260D02*
X21298Y-40260D01*
X21298Y-40260D02*
X21298Y-40580D01*
X21298Y-40580D02*
X21938Y-40580D01*
X21938Y-40580D02*
X21938Y-39750D01*
X121313Y-47250D02*
X126813Y-47250D01*
X126813Y-47250D02*
X126813Y-52750D01*
X126813Y-52750D02*
X121313Y-52750D01*
X121313Y-52750D02*
X121313Y-47250D01*
X111938Y-47250D02*
X117438Y-47250D01*
X117438Y-47250D02*
X117438Y-52750D01*
X117438Y-52750D02*
X111938Y-52750D01*
X111938Y-52750D02*
X111938Y-47250D01*
X102563Y-47250D02*
X108063Y-47250D01*
X108063Y-47250D02*
X108063Y-52750D01*
X108063Y-52750D02*
X102563Y-52750D01*
X102563Y-52750D02*
X102563Y-47250D01*
X93188Y-47250D02*
X98688Y-47250D01*
X98688Y-47250D02*
X98688Y-52750D01*
X98688Y-52750D02*
X93188Y-52750D01*
X93188Y-52750D02*
X93188Y-47250D01*
X70563Y-52750D02*
X65063Y-52750D01*
X65063Y-52750D02*
X65063Y-50900D01*
X65063Y-50900D02*
X49423Y-50900D01*
X49423Y-50900D02*
X49423Y-52240D01*
X49423Y-52240D02*
X46803Y-52240D01*
X46803Y-52240D02*
X46803Y-50900D01*
X46803Y-50900D02*
X46463Y-50900D01*
X46463Y-50900D02*
X46463Y-49800D01*
X46463Y-49800D02*
X46803Y-49800D01*
X46803Y-49800D02*
X46803Y-47400D01*
X46803Y-47400D02*
X47213Y-47400D01*
X47213Y-47400D02*
X47213Y-46940D01*
X47213Y-46940D02*
X49013Y-46940D01*
X49013Y-46940D02*
X49013Y-47400D01*
X49013Y-47400D02*
X49423Y-47400D01*
X49423Y-47400D02*
X49423Y-49100D01*
X49423Y-49100D02*
X65063Y-49100D01*
X65063Y-49100D02*
X65063Y-47250D01*
X65063Y-47250D02*
X70563Y-47250D01*
X70563Y-47250D02*
X70563Y-49100D01*
X70563Y-49100D02*
X86203Y-49100D01*
X86203Y-49100D02*
X86203Y-47400D01*
X86203Y-47400D02*
X86613Y-47400D01*
X86613Y-47400D02*
X86613Y-46940D01*
X86613Y-46940D02*
X88413Y-46940D01*
X88413Y-46940D02*
X88413Y-47400D01*
X88413Y-47400D02*
X88823Y-47400D01*
X88823Y-47400D02*
X88823Y-49800D01*
X88823Y-49800D02*
X89163Y-49800D01*
X89163Y-49800D02*
X89163Y-50900D01*
X89163Y-50900D02*
X88823Y-50900D01*
X88823Y-50900D02*
X88823Y-52240D01*
X88823Y-52240D02*
X86203Y-52240D01*
X86203Y-52240D02*
X86203Y-50900D01*
X86203Y-50900D02*
X70563Y-50900D01*
X70563Y-50900D02*
X70563Y-52750D01*
X36938Y-47250D02*
X42438Y-47250D01*
X42438Y-47250D02*
X42438Y-52750D01*
X42438Y-52750D02*
X36938Y-52750D01*
X36938Y-52750D02*
X36938Y-47250D01*
X27563Y-47250D02*
X33063Y-47250D01*
X33063Y-47250D02*
X33063Y-52750D01*
X33063Y-52750D02*
X27563Y-52750D01*
X27563Y-52750D02*
X27563Y-47250D01*
X18188Y-47250D02*
X23688Y-47250D01*
X23688Y-47250D02*
X23688Y-52750D01*
X23688Y-52750D02*
X18188Y-52750D01*
X18188Y-52750D02*
X18188Y-47250D01*
M02*
