G04 #@! TF.FileFunction,Copper,L1,Top,Signal*
%FSLAX46Y46*%
G04 Gerber Fmt 4.6, Leading zero omitted, Abs format (unit mm)*
G04 Created by KiCad (PCBNEW 4.1.0-alpha+201607250105+6992~46~ubuntu16.04.1-product) date Thu Aug 25 14:36:27 2016*
%MOMM*%
%LPD*%
G01*
G04 APERTURE LIST*
%ADD10C,0.150000*%
%ADD11C,1.905000*%
%ADD12R,1.905000X1.905000*%
%ADD13C,1.651000*%
%ADD14C,2.286000*%
%ADD15R,1.752600X1.752600*%
%ADD16C,1.752600*%
%ADD17R,1.651000X1.651000*%
%ADD18C,0.457200*%
G04 APERTURE END LIST*
D10*
D11*
X259080000Y-55880000D03*
D12*
X261620000Y-55880000D03*
D11*
X56673750Y-93980000D03*
D12*
X59213750Y-93980000D03*
D11*
X278130000Y-55880000D03*
D12*
X280670000Y-55880000D03*
D13*
X255270000Y-59134375D03*
X265430000Y-59134375D03*
X52863750Y-97234375D03*
X63023750Y-97234375D03*
X274320000Y-59134375D03*
X284480000Y-59134375D03*
D14*
X55721250Y-121920000D03*
X49371250Y-124460000D03*
X79533750Y-121920000D03*
X73183750Y-124460000D03*
X103346250Y-121920000D03*
X96996250Y-124460000D03*
X246221250Y-121920000D03*
X239871250Y-124460000D03*
X270033750Y-121920000D03*
X263683750Y-124460000D03*
X293846250Y-121920000D03*
X287496250Y-124460000D03*
X317658750Y-121920000D03*
X311308750Y-124460000D03*
X65246250Y-102870000D03*
X58896250Y-105410000D03*
X96202500Y-102870000D03*
X89852500Y-105410000D03*
X115252500Y-102870000D03*
X108902500Y-105410000D03*
X134302500Y-102870000D03*
X127952500Y-105410000D03*
X153352500Y-102870000D03*
X147002500Y-105410000D03*
X172402500Y-102870000D03*
X166052500Y-105410000D03*
X191452500Y-102870000D03*
X185102500Y-105410000D03*
X210502500Y-102870000D03*
X204152500Y-105410000D03*
X229552500Y-102870000D03*
X223202500Y-105410000D03*
X248602500Y-102870000D03*
X242252500Y-105410000D03*
X267652500Y-102870000D03*
X261302500Y-105410000D03*
X303371250Y-102870000D03*
X297021250Y-105410000D03*
X60483750Y-83820000D03*
X54133750Y-86360000D03*
X86677500Y-83820000D03*
X80327500Y-86360000D03*
X105727500Y-83820000D03*
X99377500Y-86360000D03*
X124777500Y-83820000D03*
X118427500Y-86360000D03*
X143827500Y-83820000D03*
X137477500Y-86360000D03*
X162877500Y-83820000D03*
X156527500Y-86360000D03*
X181927500Y-83820000D03*
X175577500Y-86360000D03*
X200977500Y-83820000D03*
X194627500Y-86360000D03*
X220027500Y-83820000D03*
X213677500Y-86360000D03*
X239077500Y-83820000D03*
X232727500Y-86360000D03*
X258127500Y-83820000D03*
X251777500Y-86360000D03*
X277177500Y-83820000D03*
X270827500Y-86360000D03*
X308133750Y-83820000D03*
X301783750Y-86360000D03*
X58102500Y-64770000D03*
X51752500Y-67310000D03*
X81915000Y-64770000D03*
X75565000Y-67310000D03*
X100965000Y-64770000D03*
X94615000Y-67310000D03*
X120015000Y-64770000D03*
X113665000Y-67310000D03*
X139065000Y-64770000D03*
X132715000Y-67310000D03*
X158115000Y-64770000D03*
X151765000Y-67310000D03*
X177165000Y-64770000D03*
X170815000Y-67310000D03*
X196215000Y-64770000D03*
X189865000Y-67310000D03*
X215265000Y-64770000D03*
X208915000Y-67310000D03*
X234315000Y-64770000D03*
X227965000Y-67310000D03*
X253365000Y-64770000D03*
X247015000Y-67310000D03*
X272415000Y-64770000D03*
X266065000Y-67310000D03*
X291465000Y-64770000D03*
X285115000Y-67310000D03*
X315277500Y-64770000D03*
X308927500Y-67310000D03*
X53340000Y-45720000D03*
X46990000Y-48260000D03*
X72390000Y-45720000D03*
X66040000Y-48260000D03*
X91440000Y-45720000D03*
X85090000Y-48260000D03*
X110490000Y-45720000D03*
X104140000Y-48260000D03*
X129540000Y-45720000D03*
X123190000Y-48260000D03*
X148590000Y-45720000D03*
X142240000Y-48260000D03*
X167640000Y-45720000D03*
X161290000Y-48260000D03*
X186690000Y-45720000D03*
X180340000Y-48260000D03*
X205740000Y-45720000D03*
X199390000Y-48260000D03*
X224790000Y-45720000D03*
X218440000Y-48260000D03*
X243840000Y-45720000D03*
X237490000Y-48260000D03*
X262890000Y-45720000D03*
X256540000Y-48260000D03*
X281940000Y-45720000D03*
X275590000Y-48260000D03*
X310515000Y-45720000D03*
X304165000Y-48260000D03*
D15*
X27463750Y-98107500D03*
D16*
X27463750Y-95567500D03*
X27463750Y-93027500D03*
X27463750Y-90487500D03*
X27463750Y-87947500D03*
X27463750Y-85407500D03*
X27463750Y-82867500D03*
X27463750Y-80327500D03*
X27463750Y-77787500D03*
X27463750Y-75247500D03*
X27463750Y-72707500D03*
X27463750Y-70167500D03*
X24923750Y-70167500D03*
X22383750Y-70167500D03*
X19843750Y-70167500D03*
X17303750Y-70167500D03*
X14763750Y-70167500D03*
X12223750Y-70167500D03*
X12223750Y-72707500D03*
X12223750Y-75247500D03*
X12223750Y-77787500D03*
X12223750Y-80327500D03*
X12223750Y-82867500D03*
X12223750Y-85407500D03*
X12223750Y-87947500D03*
X12223750Y-90487500D03*
X12223750Y-93027500D03*
X12223750Y-95567500D03*
X12223750Y-98107500D03*
X14763750Y-87947500D03*
X24923750Y-87947500D03*
D13*
X287734375Y-45720000D03*
D17*
X287734375Y-55880000D03*
D13*
X271065625Y-45720000D03*
D17*
X271065625Y-55880000D03*
D13*
X252015625Y-45720000D03*
D17*
X252015625Y-55880000D03*
D13*
X232965625Y-45720000D03*
D17*
X232965625Y-55880000D03*
D13*
X213915625Y-45720000D03*
D17*
X213915625Y-55880000D03*
D13*
X194865625Y-45720000D03*
D17*
X194865625Y-55880000D03*
D13*
X175815625Y-45720000D03*
D17*
X175815625Y-55880000D03*
D13*
X156765625Y-45720000D03*
D17*
X156765625Y-55880000D03*
D13*
X137715625Y-45720000D03*
D17*
X137715625Y-55880000D03*
D13*
X118665625Y-45720000D03*
D17*
X118665625Y-55880000D03*
D13*
X99615625Y-45720000D03*
D17*
X99615625Y-55880000D03*
D13*
X80565625Y-45720000D03*
D17*
X80565625Y-55880000D03*
D13*
X61515625Y-45720000D03*
D17*
X61515625Y-55880000D03*
D13*
X59134375Y-45720000D03*
D17*
X59134375Y-55880000D03*
D13*
X304403125Y-64770000D03*
D17*
X304403125Y-74930000D03*
D13*
X280590625Y-64770000D03*
D17*
X280590625Y-74930000D03*
D13*
X261540625Y-64770000D03*
D17*
X261540625Y-74930000D03*
D13*
X242490625Y-64770000D03*
D17*
X242490625Y-74930000D03*
D13*
X223440625Y-64770000D03*
D17*
X223440625Y-74930000D03*
D13*
X204390625Y-64770000D03*
D17*
X204390625Y-74930000D03*
D13*
X185340625Y-64770000D03*
D17*
X185340625Y-74930000D03*
D13*
X166290625Y-64770000D03*
D17*
X166290625Y-74930000D03*
D13*
X147240625Y-64770000D03*
D17*
X147240625Y-74930000D03*
D13*
X128190625Y-64770000D03*
D17*
X128190625Y-74930000D03*
D13*
X109140625Y-64770000D03*
D17*
X109140625Y-74930000D03*
D13*
X90090625Y-64770000D03*
D17*
X90090625Y-74930000D03*
D13*
X71040625Y-64770000D03*
D17*
X71040625Y-74930000D03*
D13*
X63896875Y-64770000D03*
D17*
X63896875Y-74930000D03*
D13*
X285353125Y-83820000D03*
D17*
X285353125Y-93980000D03*
D13*
X266303125Y-83820000D03*
D17*
X266303125Y-93980000D03*
D13*
X247253125Y-83820000D03*
D17*
X247253125Y-93980000D03*
D13*
X228203125Y-83820000D03*
D17*
X228203125Y-93980000D03*
D13*
X209153125Y-83820000D03*
D17*
X209153125Y-93980000D03*
D13*
X190103125Y-83820000D03*
D17*
X190103125Y-93980000D03*
D13*
X171053125Y-83820000D03*
D17*
X171053125Y-93980000D03*
D13*
X152003125Y-83820000D03*
D17*
X152003125Y-93980000D03*
D13*
X132953125Y-83820000D03*
D17*
X132953125Y-93980000D03*
D13*
X113903125Y-83820000D03*
D17*
X113903125Y-93980000D03*
D13*
X94853125Y-83820000D03*
D17*
X94853125Y-93980000D03*
D13*
X75803125Y-83820000D03*
D17*
X75803125Y-93980000D03*
D13*
X66278125Y-83820000D03*
D17*
X66278125Y-93980000D03*
D13*
X282971875Y-102870000D03*
D17*
X282971875Y-113030000D03*
D13*
X256778125Y-102870000D03*
D17*
X256778125Y-113030000D03*
D13*
X237728125Y-102870000D03*
D17*
X237728125Y-113030000D03*
D13*
X218678125Y-102870000D03*
D17*
X218678125Y-113030000D03*
D13*
X199628125Y-102870000D03*
D17*
X199628125Y-113030000D03*
D13*
X180578125Y-102870000D03*
D17*
X180578125Y-113030000D03*
D13*
X161528125Y-102870000D03*
D17*
X161528125Y-113030000D03*
D13*
X142478125Y-102870000D03*
D17*
X142478125Y-113030000D03*
D13*
X123428125Y-102870000D03*
D17*
X123428125Y-113030000D03*
D13*
X104378125Y-102870000D03*
D17*
X104378125Y-113030000D03*
D13*
X85328125Y-102870000D03*
D17*
X85328125Y-113030000D03*
D13*
X80565625Y-102870000D03*
D17*
X80565625Y-113030000D03*
D13*
X306784375Y-121920000D03*
D17*
X306784375Y-132080000D03*
D13*
X282971875Y-121920000D03*
D17*
X282971875Y-132080000D03*
D13*
X259159375Y-121920000D03*
D17*
X259159375Y-132080000D03*
D13*
X235346875Y-121920000D03*
D17*
X235346875Y-132080000D03*
D13*
X113903125Y-121920000D03*
D17*
X113903125Y-132080000D03*
D13*
X92471875Y-121920000D03*
D17*
X92471875Y-132080000D03*
D13*
X68659375Y-121920000D03*
D17*
X68659375Y-132080000D03*
D13*
X61515625Y-121920000D03*
D17*
X61515625Y-132080000D03*
D14*
X174783750Y-121920000D03*
X168433750Y-124460000D03*
D18*
X174783750Y-121920000D02*
X174783750Y-119380000D01*
X121285000Y-121920000D02*
X123190000Y-121920000D01*
X220980000Y-121920000D02*
X223520000Y-121920000D01*
X218440000Y-119380000D02*
X220980000Y-121920000D01*
X125730000Y-119380000D02*
X174783750Y-119380000D01*
X174783750Y-119380000D02*
X218440000Y-119380000D01*
X123190000Y-121920000D02*
X125730000Y-119380000D01*
X226060000Y-119380000D02*
X246221250Y-119380000D01*
X223520000Y-121920000D02*
X226060000Y-119380000D01*
X103346250Y-119380000D02*
X118745000Y-119380000D01*
X118745000Y-119380000D02*
X121285000Y-121920000D01*
X293846250Y-121920000D02*
X293846250Y-119380000D01*
X270033750Y-121920000D02*
X270033750Y-119380000D01*
X246221250Y-121920000D02*
X246221250Y-119380000D01*
X103346250Y-121920000D02*
X103346250Y-119380000D01*
X79533750Y-121920000D02*
X79533750Y-119380000D01*
X55721250Y-121920000D02*
X55721250Y-119380000D01*
X55721250Y-119380000D02*
X79533750Y-119380000D01*
X79533750Y-119380000D02*
X103346250Y-119380000D01*
X246221250Y-119380000D02*
X270033750Y-119380000D01*
X270033750Y-119380000D02*
X293846250Y-119380000D01*
X293846250Y-119380000D02*
X317658750Y-119380000D01*
X317658750Y-119380000D02*
X317658750Y-121920000D01*
X65246250Y-102870000D02*
X73025000Y-102870000D01*
X75565000Y-103505000D02*
X78740000Y-100330000D01*
X73660000Y-103505000D02*
X75565000Y-103505000D01*
X73025000Y-102870000D02*
X73660000Y-103505000D01*
X267652500Y-102870000D02*
X267652500Y-100330000D01*
X248602500Y-100330000D02*
X267652500Y-100330000D01*
X267652500Y-100330000D02*
X284480000Y-100330000D01*
X290830000Y-102870000D02*
X290195000Y-103505000D01*
X290195000Y-103505000D02*
X287655000Y-103505000D01*
X287655000Y-103505000D02*
X284480000Y-100330000D01*
X290830000Y-102870000D02*
X303371250Y-102870000D01*
X248602500Y-102870000D02*
X248602500Y-100330000D01*
X229552500Y-102870000D02*
X229552500Y-100330000D01*
X210502500Y-102870000D02*
X210502500Y-100330000D01*
X191452500Y-102870000D02*
X191452500Y-100330000D01*
X172402500Y-102870000D02*
X172402500Y-100330000D01*
X153352500Y-102870000D02*
X153352500Y-100330000D01*
X134302500Y-102870000D02*
X134302500Y-100330000D01*
X115252500Y-102870000D02*
X115252500Y-100330000D01*
X96202500Y-102870000D02*
X96202500Y-100330000D01*
X78740000Y-100330000D02*
X96202500Y-100330000D01*
X96202500Y-100330000D02*
X115252500Y-100330000D01*
X115252500Y-100330000D02*
X134302500Y-100330000D01*
X134302500Y-100330000D02*
X153352500Y-100330000D01*
X153352500Y-100330000D02*
X172402500Y-100330000D01*
X172402500Y-100330000D02*
X191452500Y-100330000D01*
X191452500Y-100330000D02*
X210502500Y-100330000D01*
X210502500Y-100330000D02*
X229552500Y-100330000D01*
X229552500Y-100330000D02*
X248602500Y-100330000D01*
X86677500Y-83820000D02*
X86677500Y-81280000D01*
X105727500Y-83820000D02*
X105727500Y-81280000D01*
X124777500Y-83820000D02*
X124777500Y-81280000D01*
X143827500Y-83820000D02*
X143827500Y-81280000D01*
X162877500Y-83820000D02*
X162877500Y-81280000D01*
X181927500Y-83820000D02*
X181927500Y-81280000D01*
X200977500Y-83820000D02*
X200977500Y-81280000D01*
X220027500Y-83820000D02*
X220027500Y-81280000D01*
X239077500Y-83820000D02*
X239077500Y-81280000D01*
X258127500Y-83820000D02*
X258127500Y-81280000D01*
X277177500Y-83820000D02*
X277177500Y-81280000D01*
X60483750Y-81280000D02*
X86677500Y-81280000D01*
X86677500Y-81280000D02*
X105727500Y-81280000D01*
X105727500Y-81280000D02*
X124777500Y-81280000D01*
X124777500Y-81280000D02*
X143827500Y-81280000D01*
X143827500Y-81280000D02*
X162877500Y-81280000D01*
X162877500Y-81280000D02*
X181927500Y-81280000D01*
X181927500Y-81280000D02*
X200977500Y-81280000D01*
X200977500Y-81280000D02*
X220027500Y-81280000D01*
X220027500Y-81280000D02*
X239077500Y-81280000D01*
X239077500Y-81280000D02*
X258127500Y-81280000D01*
X258127500Y-81280000D02*
X277177500Y-81280000D01*
X277177500Y-81280000D02*
X289560000Y-81280000D01*
X295275000Y-83820000D02*
X308133750Y-83820000D01*
X294640000Y-84455000D02*
X295275000Y-83820000D01*
X292735000Y-84455000D02*
X294640000Y-84455000D01*
X289560000Y-81280000D02*
X292735000Y-84455000D01*
X60483750Y-83820000D02*
X60483750Y-81280000D01*
X81915000Y-64770000D02*
X81915000Y-62230000D01*
X100965000Y-64770000D02*
X100965000Y-62230000D01*
X120015000Y-64770000D02*
X120015000Y-62230000D01*
X139065000Y-64770000D02*
X139065000Y-62230000D01*
X158115000Y-64770000D02*
X158115000Y-62230000D01*
X177165000Y-64770000D02*
X177165000Y-62230000D01*
X196215000Y-64770000D02*
X196215000Y-62230000D01*
X215265000Y-64770000D02*
X215265000Y-62230000D01*
X234315000Y-64770000D02*
X234315000Y-62230000D01*
X253365000Y-64770000D02*
X253365000Y-62230000D01*
X272415000Y-64770000D02*
X272415000Y-62230000D01*
X291465000Y-64770000D02*
X291465000Y-62230000D01*
X315277500Y-64770000D02*
X315277500Y-62230000D01*
X58102500Y-62230000D02*
X81915000Y-62230000D01*
X81915000Y-62230000D02*
X100965000Y-62230000D01*
X100965000Y-62230000D02*
X120015000Y-62230000D01*
X120015000Y-62230000D02*
X139065000Y-62230000D01*
X139065000Y-62230000D02*
X158115000Y-62230000D01*
X158115000Y-62230000D02*
X177165000Y-62230000D01*
X177165000Y-62230000D02*
X196215000Y-62230000D01*
X196215000Y-62230000D02*
X215265000Y-62230000D01*
X215265000Y-62230000D02*
X234315000Y-62230000D01*
X234315000Y-62230000D02*
X253365000Y-62230000D01*
X253365000Y-62230000D02*
X272415000Y-62230000D01*
X272415000Y-62230000D02*
X291465000Y-62230000D01*
X291465000Y-62230000D02*
X315277500Y-62230000D01*
X58102500Y-64770000D02*
X58102500Y-62230000D01*
X72390000Y-45720000D02*
X72390000Y-43180000D01*
X91440000Y-45720000D02*
X91440000Y-43180000D01*
X110490000Y-45720000D02*
X110490000Y-43180000D01*
X129540000Y-45720000D02*
X129540000Y-43180000D01*
X148590000Y-45720000D02*
X148590000Y-43180000D01*
X167640000Y-45720000D02*
X167640000Y-43180000D01*
X186690000Y-45720000D02*
X186690000Y-43180000D01*
X205740000Y-45720000D02*
X205740000Y-43180000D01*
X224790000Y-45720000D02*
X224790000Y-43180000D01*
X243840000Y-45720000D02*
X243840000Y-43180000D01*
X262890000Y-45720000D02*
X262890000Y-43180000D01*
X281940000Y-45720000D02*
X281940000Y-43180000D01*
X310515000Y-45720000D02*
X297815000Y-45720000D01*
X295275000Y-46355000D02*
X292100000Y-43180000D01*
X297180000Y-46355000D02*
X295275000Y-46355000D01*
X297815000Y-45720000D02*
X297180000Y-46355000D01*
X53340000Y-43180000D02*
X72390000Y-43180000D01*
X72390000Y-43180000D02*
X91440000Y-43180000D01*
X91440000Y-43180000D02*
X110490000Y-43180000D01*
X110490000Y-43180000D02*
X129540000Y-43180000D01*
X129540000Y-43180000D02*
X148590000Y-43180000D01*
X148590000Y-43180000D02*
X167640000Y-43180000D01*
X167640000Y-43180000D02*
X186690000Y-43180000D01*
X186690000Y-43180000D02*
X205740000Y-43180000D01*
X205740000Y-43180000D02*
X224790000Y-43180000D01*
X224790000Y-43180000D02*
X243840000Y-43180000D01*
X243840000Y-43180000D02*
X262890000Y-43180000D01*
X262890000Y-43180000D02*
X281940000Y-43180000D01*
X281940000Y-43180000D02*
X292100000Y-43180000D01*
X53340000Y-45720000D02*
X53340000Y-43180000D01*
X49371250Y-124460000D02*
X50006250Y-123825000D01*
X50006250Y-123825000D02*
X53975000Y-123825000D01*
X53975000Y-123825000D02*
X54610000Y-124460000D01*
X54610000Y-124460000D02*
X58975625Y-124460000D01*
X58975625Y-124460000D02*
X61515625Y-121920000D01*
X73183750Y-124460000D02*
X71199375Y-124460000D01*
X71199375Y-124460000D02*
X68659375Y-121920000D01*
X96996250Y-124460000D02*
X95011875Y-124460000D01*
X95011875Y-124460000D02*
X92471875Y-121920000D01*
X239871250Y-124460000D02*
X237886875Y-124460000D01*
X237886875Y-124460000D02*
X235346875Y-121920000D01*
X263683750Y-124460000D02*
X261699375Y-124460000D01*
X261699375Y-124460000D02*
X259159375Y-121920000D01*
X287496250Y-124460000D02*
X285511875Y-124460000D01*
X285511875Y-124460000D02*
X282971875Y-121920000D01*
X311308750Y-124460000D02*
X309324375Y-124460000D01*
X309324375Y-124460000D02*
X306784375Y-121920000D01*
X89852500Y-105410000D02*
X87868125Y-105410000D01*
X87868125Y-105410000D02*
X85328125Y-102870000D01*
X108902500Y-105410000D02*
X106918125Y-105410000D01*
X106918125Y-105410000D02*
X104378125Y-102870000D01*
X127952500Y-105410000D02*
X125968125Y-105410000D01*
X125968125Y-105410000D02*
X123428125Y-102870000D01*
X147002500Y-105410000D02*
X145018125Y-105410000D01*
X145018125Y-105410000D02*
X142478125Y-102870000D01*
X166052500Y-105410000D02*
X164068125Y-105410000D01*
X164068125Y-105410000D02*
X161528125Y-102870000D01*
X185102500Y-105410000D02*
X183118125Y-105410000D01*
X183118125Y-105410000D02*
X180578125Y-102870000D01*
X204152500Y-105410000D02*
X202168125Y-105410000D01*
X202168125Y-105410000D02*
X199628125Y-102870000D01*
X223202500Y-105410000D02*
X221218125Y-105410000D01*
X221218125Y-105410000D02*
X218678125Y-102870000D01*
X242252500Y-105410000D02*
X240268125Y-105410000D01*
X240268125Y-105410000D02*
X237728125Y-102870000D01*
X261302500Y-105410000D02*
X259318125Y-105410000D01*
X259318125Y-105410000D02*
X256778125Y-102870000D01*
X54133750Y-86360000D02*
X54768750Y-85725000D01*
X54768750Y-85725000D02*
X59055000Y-85725000D01*
X59055000Y-85725000D02*
X59690000Y-86360000D01*
X59690000Y-86360000D02*
X63738125Y-86360000D01*
X63738125Y-86360000D02*
X66278125Y-83820000D01*
X80327500Y-86360000D02*
X78343125Y-86360000D01*
X78343125Y-86360000D02*
X75803125Y-83820000D01*
X99377500Y-86360000D02*
X97393125Y-86360000D01*
X97393125Y-86360000D02*
X94853125Y-83820000D01*
X118427500Y-86360000D02*
X116443125Y-86360000D01*
X116443125Y-86360000D02*
X113903125Y-83820000D01*
X137477500Y-86360000D02*
X135493125Y-86360000D01*
X135493125Y-86360000D02*
X132953125Y-83820000D01*
X156527500Y-86360000D02*
X154543125Y-86360000D01*
X154543125Y-86360000D02*
X152003125Y-83820000D01*
X175577500Y-86360000D02*
X173593125Y-86360000D01*
X173593125Y-86360000D02*
X171053125Y-83820000D01*
X194627500Y-86360000D02*
X192643125Y-86360000D01*
X192643125Y-86360000D02*
X190103125Y-83820000D01*
X213677500Y-86360000D02*
X211693125Y-86360000D01*
X211693125Y-86360000D02*
X209153125Y-83820000D01*
X232727500Y-86360000D02*
X230743125Y-86360000D01*
X230743125Y-86360000D02*
X228203125Y-83820000D01*
X251777500Y-86360000D02*
X249793125Y-86360000D01*
X249793125Y-86360000D02*
X247253125Y-83820000D01*
X270827500Y-86360000D02*
X268843125Y-86360000D01*
X268843125Y-86360000D02*
X266303125Y-83820000D01*
X51752500Y-67310000D02*
X52387500Y-66675000D01*
X52387500Y-66675000D02*
X56515000Y-66675000D01*
X56515000Y-66675000D02*
X57150000Y-67310000D01*
X57150000Y-67310000D02*
X61356875Y-67310000D01*
X61356875Y-67310000D02*
X63896875Y-64770000D01*
X75565000Y-67310000D02*
X73580625Y-67310000D01*
X73580625Y-67310000D02*
X71040625Y-64770000D01*
X94615000Y-67310000D02*
X92630625Y-67310000D01*
X92630625Y-67310000D02*
X90090625Y-64770000D01*
X113665000Y-67310000D02*
X111680625Y-67310000D01*
X111680625Y-67310000D02*
X109140625Y-64770000D01*
X132715000Y-67310000D02*
X130730625Y-67310000D01*
X130730625Y-67310000D02*
X128190625Y-64770000D01*
X151765000Y-67310000D02*
X149780625Y-67310000D01*
X149780625Y-67310000D02*
X147240625Y-64770000D01*
X170815000Y-67310000D02*
X168830625Y-67310000D01*
X168830625Y-67310000D02*
X166290625Y-64770000D01*
X189865000Y-67310000D02*
X187880625Y-67310000D01*
X187880625Y-67310000D02*
X185340625Y-64770000D01*
X208915000Y-67310000D02*
X206930625Y-67310000D01*
X206930625Y-67310000D02*
X204390625Y-64770000D01*
X227965000Y-67310000D02*
X225980625Y-67310000D01*
X225980625Y-67310000D02*
X223440625Y-64770000D01*
X247015000Y-67310000D02*
X245030625Y-67310000D01*
X245030625Y-67310000D02*
X242490625Y-64770000D01*
X266065000Y-67310000D02*
X264080625Y-67310000D01*
X264080625Y-67310000D02*
X261540625Y-64770000D01*
X285115000Y-67310000D02*
X283130625Y-67310000D01*
X283130625Y-67310000D02*
X280590625Y-64770000D01*
X308927500Y-67310000D02*
X306943125Y-67310000D01*
X306943125Y-67310000D02*
X304403125Y-64770000D01*
X66040000Y-48260000D02*
X64055625Y-48260000D01*
X64055625Y-48260000D02*
X61515625Y-45720000D01*
X85090000Y-48260000D02*
X83105625Y-48260000D01*
X83105625Y-48260000D02*
X80565625Y-45720000D01*
X104140000Y-48260000D02*
X102155625Y-48260000D01*
X102155625Y-48260000D02*
X99615625Y-45720000D01*
X123190000Y-48260000D02*
X121205625Y-48260000D01*
X121205625Y-48260000D02*
X118665625Y-45720000D01*
X142240000Y-48260000D02*
X140255625Y-48260000D01*
X140255625Y-48260000D02*
X137715625Y-45720000D01*
X161290000Y-48260000D02*
X159305625Y-48260000D01*
X159305625Y-48260000D02*
X156765625Y-45720000D01*
X180340000Y-48260000D02*
X178355625Y-48260000D01*
X178355625Y-48260000D02*
X175815625Y-45720000D01*
X199390000Y-48260000D02*
X197405625Y-48260000D01*
X197405625Y-48260000D02*
X194865625Y-45720000D01*
X218440000Y-48260000D02*
X216455625Y-48260000D01*
X216455625Y-48260000D02*
X213915625Y-45720000D01*
X237490000Y-48260000D02*
X235505625Y-48260000D01*
X235505625Y-48260000D02*
X232965625Y-45720000D01*
X256540000Y-48260000D02*
X254555625Y-48260000D01*
X254555625Y-48260000D02*
X252015625Y-45720000D01*
X275590000Y-48260000D02*
X273605625Y-48260000D01*
X273605625Y-48260000D02*
X271065625Y-45720000D01*
X304165000Y-48260000D02*
X290274375Y-48260000D01*
X290274375Y-48260000D02*
X287734375Y-45720000D01*
X168433750Y-124460000D02*
X116443125Y-124460000D01*
X116443125Y-124460000D02*
X113903125Y-121920000D01*
X58896250Y-105410000D02*
X59531250Y-104775000D01*
X59531250Y-104775000D02*
X63500000Y-104775000D01*
X63500000Y-104775000D02*
X64135000Y-105410000D01*
X64135000Y-105410000D02*
X78025625Y-105410000D01*
X78025625Y-105410000D02*
X80565625Y-102870000D01*
X297021250Y-105410000D02*
X285511875Y-105410000D01*
X285511875Y-105410000D02*
X282971875Y-102870000D01*
X301783750Y-86360000D02*
X287893125Y-86360000D01*
X287893125Y-86360000D02*
X285353125Y-83820000D01*
M02*
