G04 #@! TF.FileFunction,Soldermask,Top*
%FSLAX46Y46*%
G04 Gerber Fmt 4.6, Leading zero omitted, Abs format (unit mm)*
G04 Created by KiCad (PCBNEW 4.1.0-alpha+201607250105+6992~46~ubuntu16.04.1-product) date Thu Aug 25 14:36:27 2016*
%MOMM*%
%LPD*%
G01*
G04 APERTURE LIST*
%ADD10C,0.150000*%
%ADD11C,2.413000*%
%ADD12R,2.413000X2.413000*%
%ADD13C,2.159000*%
%ADD14C,2.794000*%
%ADD15R,2.260600X2.260600*%
%ADD16C,2.260600*%
%ADD17R,2.159000X2.159000*%
G04 APERTURE END LIST*
D10*
D11*
X259080000Y-55880000D03*
D12*
X261620000Y-55880000D03*
D11*
X56673750Y-93980000D03*
D12*
X59213750Y-93980000D03*
D11*
X278130000Y-55880000D03*
D12*
X280670000Y-55880000D03*
D13*
X255270000Y-59134375D03*
X265430000Y-59134375D03*
X52863750Y-97234375D03*
X63023750Y-97234375D03*
X274320000Y-59134375D03*
X284480000Y-59134375D03*
D14*
X55721250Y-121920000D03*
X49371250Y-124460000D03*
X79533750Y-121920000D03*
X73183750Y-124460000D03*
X103346250Y-121920000D03*
X96996250Y-124460000D03*
X246221250Y-121920000D03*
X239871250Y-124460000D03*
X270033750Y-121920000D03*
X263683750Y-124460000D03*
X293846250Y-121920000D03*
X287496250Y-124460000D03*
X317658750Y-121920000D03*
X311308750Y-124460000D03*
X65246250Y-102870000D03*
X58896250Y-105410000D03*
X96202500Y-102870000D03*
X89852500Y-105410000D03*
X115252500Y-102870000D03*
X108902500Y-105410000D03*
X134302500Y-102870000D03*
X127952500Y-105410000D03*
X153352500Y-102870000D03*
X147002500Y-105410000D03*
X172402500Y-102870000D03*
X166052500Y-105410000D03*
X191452500Y-102870000D03*
X185102500Y-105410000D03*
X210502500Y-102870000D03*
X204152500Y-105410000D03*
X229552500Y-102870000D03*
X223202500Y-105410000D03*
X248602500Y-102870000D03*
X242252500Y-105410000D03*
X267652500Y-102870000D03*
X261302500Y-105410000D03*
X303371250Y-102870000D03*
X297021250Y-105410000D03*
X60483750Y-83820000D03*
X54133750Y-86360000D03*
X86677500Y-83820000D03*
X80327500Y-86360000D03*
X105727500Y-83820000D03*
X99377500Y-86360000D03*
X124777500Y-83820000D03*
X118427500Y-86360000D03*
X143827500Y-83820000D03*
X137477500Y-86360000D03*
X162877500Y-83820000D03*
X156527500Y-86360000D03*
X181927500Y-83820000D03*
X175577500Y-86360000D03*
X200977500Y-83820000D03*
X194627500Y-86360000D03*
X220027500Y-83820000D03*
X213677500Y-86360000D03*
X239077500Y-83820000D03*
X232727500Y-86360000D03*
X258127500Y-83820000D03*
X251777500Y-86360000D03*
X277177500Y-83820000D03*
X270827500Y-86360000D03*
X308133750Y-83820000D03*
X301783750Y-86360000D03*
X58102500Y-64770000D03*
X51752500Y-67310000D03*
X81915000Y-64770000D03*
X75565000Y-67310000D03*
X100965000Y-64770000D03*
X94615000Y-67310000D03*
X120015000Y-64770000D03*
X113665000Y-67310000D03*
X139065000Y-64770000D03*
X132715000Y-67310000D03*
X158115000Y-64770000D03*
X151765000Y-67310000D03*
X177165000Y-64770000D03*
X170815000Y-67310000D03*
X196215000Y-64770000D03*
X189865000Y-67310000D03*
X215265000Y-64770000D03*
X208915000Y-67310000D03*
X234315000Y-64770000D03*
X227965000Y-67310000D03*
X253365000Y-64770000D03*
X247015000Y-67310000D03*
X272415000Y-64770000D03*
X266065000Y-67310000D03*
X291465000Y-64770000D03*
X285115000Y-67310000D03*
X315277500Y-64770000D03*
X308927500Y-67310000D03*
X53340000Y-45720000D03*
X46990000Y-48260000D03*
X72390000Y-45720000D03*
X66040000Y-48260000D03*
X91440000Y-45720000D03*
X85090000Y-48260000D03*
X110490000Y-45720000D03*
X104140000Y-48260000D03*
X129540000Y-45720000D03*
X123190000Y-48260000D03*
X148590000Y-45720000D03*
X142240000Y-48260000D03*
X167640000Y-45720000D03*
X161290000Y-48260000D03*
X186690000Y-45720000D03*
X180340000Y-48260000D03*
X205740000Y-45720000D03*
X199390000Y-48260000D03*
X224790000Y-45720000D03*
X218440000Y-48260000D03*
X243840000Y-45720000D03*
X237490000Y-48260000D03*
X262890000Y-45720000D03*
X256540000Y-48260000D03*
X281940000Y-45720000D03*
X275590000Y-48260000D03*
X310515000Y-45720000D03*
X304165000Y-48260000D03*
D15*
X27463750Y-98107500D03*
D16*
X27463750Y-95567500D03*
X27463750Y-93027500D03*
X27463750Y-90487500D03*
X27463750Y-87947500D03*
X27463750Y-85407500D03*
X27463750Y-82867500D03*
X27463750Y-80327500D03*
X27463750Y-77787500D03*
X27463750Y-75247500D03*
X27463750Y-72707500D03*
X27463750Y-70167500D03*
X24923750Y-70167500D03*
X22383750Y-70167500D03*
X19843750Y-70167500D03*
X17303750Y-70167500D03*
X14763750Y-70167500D03*
X12223750Y-70167500D03*
X12223750Y-72707500D03*
X12223750Y-75247500D03*
X12223750Y-77787500D03*
X12223750Y-80327500D03*
X12223750Y-82867500D03*
X12223750Y-85407500D03*
X12223750Y-87947500D03*
X12223750Y-90487500D03*
X12223750Y-93027500D03*
X12223750Y-95567500D03*
X12223750Y-98107500D03*
X14763750Y-87947500D03*
X24923750Y-87947500D03*
D13*
X287734375Y-45720000D03*
D17*
X287734375Y-55880000D03*
D13*
X271065625Y-45720000D03*
D17*
X271065625Y-55880000D03*
D13*
X252015625Y-45720000D03*
D17*
X252015625Y-55880000D03*
D13*
X232965625Y-45720000D03*
D17*
X232965625Y-55880000D03*
D13*
X213915625Y-45720000D03*
D17*
X213915625Y-55880000D03*
D13*
X194865625Y-45720000D03*
D17*
X194865625Y-55880000D03*
D13*
X175815625Y-45720000D03*
D17*
X175815625Y-55880000D03*
D13*
X156765625Y-45720000D03*
D17*
X156765625Y-55880000D03*
D13*
X137715625Y-45720000D03*
D17*
X137715625Y-55880000D03*
D13*
X118665625Y-45720000D03*
D17*
X118665625Y-55880000D03*
D13*
X99615625Y-45720000D03*
D17*
X99615625Y-55880000D03*
D13*
X80565625Y-45720000D03*
D17*
X80565625Y-55880000D03*
D13*
X61515625Y-45720000D03*
D17*
X61515625Y-55880000D03*
D13*
X59134375Y-45720000D03*
D17*
X59134375Y-55880000D03*
D13*
X304403125Y-64770000D03*
D17*
X304403125Y-74930000D03*
D13*
X280590625Y-64770000D03*
D17*
X280590625Y-74930000D03*
D13*
X261540625Y-64770000D03*
D17*
X261540625Y-74930000D03*
D13*
X242490625Y-64770000D03*
D17*
X242490625Y-74930000D03*
D13*
X223440625Y-64770000D03*
D17*
X223440625Y-74930000D03*
D13*
X204390625Y-64770000D03*
D17*
X204390625Y-74930000D03*
D13*
X185340625Y-64770000D03*
D17*
X185340625Y-74930000D03*
D13*
X166290625Y-64770000D03*
D17*
X166290625Y-74930000D03*
D13*
X147240625Y-64770000D03*
D17*
X147240625Y-74930000D03*
D13*
X128190625Y-64770000D03*
D17*
X128190625Y-74930000D03*
D13*
X109140625Y-64770000D03*
D17*
X109140625Y-74930000D03*
D13*
X90090625Y-64770000D03*
D17*
X90090625Y-74930000D03*
D13*
X71040625Y-64770000D03*
D17*
X71040625Y-74930000D03*
D13*
X63896875Y-64770000D03*
D17*
X63896875Y-74930000D03*
D13*
X285353125Y-83820000D03*
D17*
X285353125Y-93980000D03*
D13*
X266303125Y-83820000D03*
D17*
X266303125Y-93980000D03*
D13*
X247253125Y-83820000D03*
D17*
X247253125Y-93980000D03*
D13*
X228203125Y-83820000D03*
D17*
X228203125Y-93980000D03*
D13*
X209153125Y-83820000D03*
D17*
X209153125Y-93980000D03*
D13*
X190103125Y-83820000D03*
D17*
X190103125Y-93980000D03*
D13*
X171053125Y-83820000D03*
D17*
X171053125Y-93980000D03*
D13*
X152003125Y-83820000D03*
D17*
X152003125Y-93980000D03*
D13*
X132953125Y-83820000D03*
D17*
X132953125Y-93980000D03*
D13*
X113903125Y-83820000D03*
D17*
X113903125Y-93980000D03*
D13*
X94853125Y-83820000D03*
D17*
X94853125Y-93980000D03*
D13*
X75803125Y-83820000D03*
D17*
X75803125Y-93980000D03*
D13*
X66278125Y-83820000D03*
D17*
X66278125Y-93980000D03*
D13*
X282971875Y-102870000D03*
D17*
X282971875Y-113030000D03*
D13*
X256778125Y-102870000D03*
D17*
X256778125Y-113030000D03*
D13*
X237728125Y-102870000D03*
D17*
X237728125Y-113030000D03*
D13*
X218678125Y-102870000D03*
D17*
X218678125Y-113030000D03*
D13*
X199628125Y-102870000D03*
D17*
X199628125Y-113030000D03*
D13*
X180578125Y-102870000D03*
D17*
X180578125Y-113030000D03*
D13*
X161528125Y-102870000D03*
D17*
X161528125Y-113030000D03*
D13*
X142478125Y-102870000D03*
D17*
X142478125Y-113030000D03*
D13*
X123428125Y-102870000D03*
D17*
X123428125Y-113030000D03*
D13*
X104378125Y-102870000D03*
D17*
X104378125Y-113030000D03*
D13*
X85328125Y-102870000D03*
D17*
X85328125Y-113030000D03*
D13*
X80565625Y-102870000D03*
D17*
X80565625Y-113030000D03*
D13*
X306784375Y-121920000D03*
D17*
X306784375Y-132080000D03*
D13*
X282971875Y-121920000D03*
D17*
X282971875Y-132080000D03*
D13*
X259159375Y-121920000D03*
D17*
X259159375Y-132080000D03*
D13*
X235346875Y-121920000D03*
D17*
X235346875Y-132080000D03*
D13*
X113903125Y-121920000D03*
D17*
X113903125Y-132080000D03*
D13*
X92471875Y-121920000D03*
D17*
X92471875Y-132080000D03*
D13*
X68659375Y-121920000D03*
D17*
X68659375Y-132080000D03*
D13*
X61515625Y-121920000D03*
D17*
X61515625Y-132080000D03*
D14*
X174783750Y-121920000D03*
X168433750Y-124460000D03*
M02*
