M48
;DRILL file {KiCad 4.1.0-alpha+201607250105+6992~46~ubuntu16.04.1-product} date Thu Aug 25 14:34:54 2016
;FORMAT={-:-/ absolute / inch / decimal}
FMAT,2
INCH,TZ
T1C0.067
T2C0.120
T3C0.157
%
G90
G05
M72
T1
X1.8Y-2.
X1.8938Y-5.
X1.9875Y-2.75
X2.0812Y-3.5
X2.2Y-2.
X2.2687Y-4.25
X2.2937Y-5.
X2.3875Y-2.75
X2.4812Y-3.5
X2.55Y-2.
X2.6687Y-4.25
X2.8312Y-5.
X2.925Y-2.75
X2.95Y-2.
X3.1125Y-3.5
X3.2312Y-5.
X3.3Y-2.
X3.325Y-2.75
X3.4875Y-4.25
X3.5125Y-3.5
X3.675Y-2.75
X3.7Y-2.
X3.7687Y-5.
X3.8625Y-3.5
X3.8875Y-4.25
X4.05Y-2.
X4.075Y-2.75
X4.1688Y-5.
X4.2375Y-4.25
X4.2625Y-3.5
X4.425Y-2.75
X4.45Y-2.
X4.6125Y-3.5
X4.6375Y-4.25
X4.8Y-2.
X4.825Y-2.75
X4.9875Y-4.25
X5.0125Y-3.5
X5.175Y-2.75
X5.2Y-2.
X5.3625Y-3.5
X5.3875Y-4.25
X5.55Y-2.
X5.575Y-2.75
X5.7375Y-4.25
X5.7625Y-3.5
X5.925Y-2.75
X5.95Y-2.
X6.1125Y-3.5
X6.1375Y-4.25
X6.3Y-2.
X6.325Y-2.75
X6.4875Y-4.25
X6.5125Y-3.5
X6.5812Y-5.
X6.675Y-2.75
X6.7Y-2.
X6.8625Y-3.5
X6.8875Y-4.25
X6.9813Y-5.
X7.05Y-2.
X7.075Y-2.75
X7.2375Y-4.25
X7.2625Y-3.5
X7.425Y-2.75
X7.45Y-2.
X7.6125Y-3.5
X7.6375Y-4.25
X7.8Y-2.
X7.825Y-2.75
X7.9875Y-4.25
X8.0125Y-3.5
X8.175Y-2.75
X8.2Y-2.
X8.3625Y-3.5
X8.3875Y-4.25
X8.55Y-2.
X8.575Y-2.75
X8.7375Y-4.25
X8.7625Y-3.5
X8.925Y-2.75
X8.95Y-2.
X9.1125Y-3.5
X9.1375Y-4.25
X9.3Y-2.
X9.325Y-2.75
X9.3937Y-5.
X9.4875Y-4.25
X9.5125Y-3.5
X9.675Y-2.75
X9.7Y-2.
X9.7937Y-5.
X9.8625Y-3.5
X9.8875Y-4.25
X10.05Y-2.
X10.075Y-2.75
X10.2375Y-4.25
X10.2625Y-3.5
X10.3312Y-5.
X10.425Y-2.75
X10.45Y-2.
X10.6125Y-3.5
X10.6375Y-4.25
X10.7312Y-5.
X10.8Y-2.
X10.825Y-2.75
X11.0125Y-3.5
X11.175Y-2.75
X11.2Y-2.
X11.2687Y-5.
X11.575Y-2.75
X11.6437Y-4.25
X11.6687Y-5.
X11.8312Y-3.5
X11.925Y-2.
X12.0437Y-4.25
X12.1125Y-2.75
X12.2062Y-5.
X12.2312Y-3.5
X12.325Y-2.
X12.5125Y-2.75
X12.6062Y-5.
T2
X1.9988Y-3.975
X2.9387Y-3.975
X4.8113Y-5.275
X8.7513Y-5.275
X11.3737Y-3.975
X11.5612Y-3.225
X11.655Y-1.725
X12.3137Y-3.975
X12.5012Y-3.225
X12.595Y-1.725
T3
X1.9988Y-4.575
X2.Y-2.
X2.0938Y-5.
X2.1875Y-2.75
X2.2812Y-3.5
X2.4688Y-4.25
X2.75Y-2.
X2.9387Y-4.575
X3.0312Y-5.
X3.125Y-2.75
X3.3125Y-3.5
X3.5Y-2.
X3.6875Y-4.25
X3.875Y-2.75
X3.9688Y-5.
X4.0625Y-3.5
X4.25Y-2.
X4.4375Y-4.25
X4.625Y-2.75
X4.8113Y-4.675
X4.8125Y-3.5
X5.Y-2.
X5.1875Y-4.25
X5.375Y-2.75
X5.5625Y-3.5
X5.75Y-2.
X5.9375Y-4.25
X6.125Y-2.75
X6.3125Y-3.5
X6.5Y-2.
X6.6875Y-4.25
X6.7812Y-5.
X6.875Y-2.75
X7.0625Y-3.5
X7.25Y-2.
X7.4375Y-4.25
X7.625Y-2.75
X7.8125Y-3.5
X8.Y-2.
X8.1875Y-4.25
X8.375Y-2.75
X8.5625Y-3.5
X8.75Y-2.
X8.7513Y-4.675
X8.9375Y-4.25
X9.125Y-2.75
X9.3125Y-3.5
X9.5Y-2.
X9.5938Y-5.
X9.6875Y-4.25
X9.875Y-2.75
X10.0625Y-3.5
X10.25Y-2.
X10.4375Y-4.25
X10.5312Y-5.
X10.625Y-2.75
X10.8125Y-3.5
X11.Y-2.
X11.3737Y-4.575
X11.375Y-2.75
X11.4688Y-5.
X11.5612Y-3.825
X11.655Y-2.325
X11.8438Y-4.25
X12.0312Y-3.5
X12.125Y-2.
X12.3125Y-2.75
X12.3137Y-4.575
X12.4062Y-5.
X12.5012Y-3.825
X12.595Y-2.325
T0
M30
