G04 #@! TF.FileFunction,Other,ECO2*
%FSLAX46Y46*%
G04 Gerber Fmt 4.6, Leading zero omitted, Abs format (unit mm)*
G04 Created by KiCad (PCBNEW 4.1.0-alpha+201607250105+6992~46~ubuntu16.04.1-product) date Thu Aug 25 14:36:27 2016*
%MOMM*%
%LPD*%
G01*
G04 APERTURE LIST*
%ADD10C,0.150000*%
%ADD11C,0.152400*%
G04 APERTURE END LIST*
D10*
D11*
X46196250Y-120015000D02*
X60166250Y-120015000D01*
X60166250Y-120015000D02*
X60166250Y-133985000D01*
X60166250Y-133985000D02*
X46196250Y-133985000D01*
X46196250Y-133985000D02*
X46196250Y-120015000D01*
X70008750Y-120015000D02*
X83978750Y-120015000D01*
X83978750Y-120015000D02*
X83978750Y-133985000D01*
X83978750Y-133985000D02*
X70008750Y-133985000D01*
X70008750Y-133985000D02*
X70008750Y-120015000D01*
X93821250Y-120015000D02*
X107791250Y-120015000D01*
X107791250Y-120015000D02*
X107791250Y-133985000D01*
X107791250Y-133985000D02*
X93821250Y-133985000D01*
X93821250Y-133985000D02*
X93821250Y-120015000D01*
X236696250Y-120015000D02*
X250666250Y-120015000D01*
X250666250Y-120015000D02*
X250666250Y-133985000D01*
X250666250Y-133985000D02*
X236696250Y-133985000D01*
X236696250Y-133985000D02*
X236696250Y-120015000D01*
X260508750Y-120015000D02*
X274478750Y-120015000D01*
X274478750Y-120015000D02*
X274478750Y-133985000D01*
X274478750Y-133985000D02*
X260508750Y-133985000D01*
X260508750Y-133985000D02*
X260508750Y-120015000D01*
X284321250Y-120015000D02*
X298291250Y-120015000D01*
X298291250Y-120015000D02*
X298291250Y-133985000D01*
X298291250Y-133985000D02*
X284321250Y-133985000D01*
X284321250Y-133985000D02*
X284321250Y-120015000D01*
X308133750Y-120015000D02*
X322103750Y-120015000D01*
X322103750Y-120015000D02*
X322103750Y-133985000D01*
X322103750Y-133985000D02*
X308133750Y-133985000D01*
X308133750Y-133985000D02*
X308133750Y-120015000D01*
X55721250Y-100965000D02*
X69691250Y-100965000D01*
X69691250Y-100965000D02*
X69691250Y-103073200D01*
X69691250Y-103073200D02*
X71316850Y-103073200D01*
X71316850Y-103073200D02*
X71316850Y-102260400D01*
X71316850Y-102260400D02*
X77971650Y-102260400D01*
X77971650Y-102260400D02*
X77971650Y-105664000D01*
X77971650Y-105664000D02*
X78835250Y-105664000D01*
X78835250Y-105664000D02*
X78835250Y-108458000D01*
X78835250Y-108458000D02*
X77971650Y-108458000D01*
X77971650Y-108458000D02*
X77971650Y-114554000D01*
X77971650Y-114554000D02*
X76930250Y-114554000D01*
X76930250Y-114554000D02*
X76930250Y-115722400D01*
X76930250Y-115722400D02*
X72358250Y-115722400D01*
X72358250Y-115722400D02*
X72358250Y-114554000D01*
X72358250Y-114554000D02*
X71316850Y-114554000D01*
X71316850Y-114554000D02*
X71316850Y-113766600D01*
X71316850Y-113766600D02*
X69691250Y-113766600D01*
X69691250Y-113766600D02*
X69691250Y-114935000D01*
X69691250Y-114935000D02*
X55721250Y-114935000D01*
X55721250Y-114935000D02*
X55721250Y-113766600D01*
X55721250Y-113766600D02*
X54095650Y-113766600D01*
X54095650Y-113766600D02*
X54095650Y-114554000D01*
X54095650Y-114554000D02*
X53054250Y-114554000D01*
X53054250Y-114554000D02*
X53054250Y-115722400D01*
X53054250Y-115722400D02*
X48482250Y-115722400D01*
X48482250Y-115722400D02*
X48482250Y-114554000D01*
X48482250Y-114554000D02*
X47440850Y-114554000D01*
X47440850Y-114554000D02*
X47440850Y-108458000D01*
X47440850Y-108458000D02*
X46577250Y-108458000D01*
X46577250Y-108458000D02*
X46577250Y-105664000D01*
X46577250Y-105664000D02*
X47440850Y-105664000D01*
X47440850Y-105664000D02*
X47440850Y-102260400D01*
X47440850Y-102260400D02*
X54095650Y-102260400D01*
X54095650Y-102260400D02*
X54095650Y-103073200D01*
X54095650Y-103073200D02*
X55721250Y-103073200D01*
X55721250Y-103073200D02*
X55721250Y-100965000D01*
X86677500Y-100965000D02*
X100647500Y-100965000D01*
X100647500Y-100965000D02*
X100647500Y-114935000D01*
X100647500Y-114935000D02*
X86677500Y-114935000D01*
X86677500Y-114935000D02*
X86677500Y-100965000D01*
X105727500Y-100965000D02*
X119697500Y-100965000D01*
X119697500Y-100965000D02*
X119697500Y-114935000D01*
X119697500Y-114935000D02*
X105727500Y-114935000D01*
X105727500Y-114935000D02*
X105727500Y-100965000D01*
X124777500Y-100965000D02*
X138747500Y-100965000D01*
X138747500Y-100965000D02*
X138747500Y-114935000D01*
X138747500Y-114935000D02*
X124777500Y-114935000D01*
X124777500Y-114935000D02*
X124777500Y-100965000D01*
X143827500Y-100965000D02*
X157797500Y-100965000D01*
X157797500Y-100965000D02*
X157797500Y-114935000D01*
X157797500Y-114935000D02*
X143827500Y-114935000D01*
X143827500Y-114935000D02*
X143827500Y-100965000D01*
X162877500Y-100965000D02*
X176847500Y-100965000D01*
X176847500Y-100965000D02*
X176847500Y-114935000D01*
X176847500Y-114935000D02*
X162877500Y-114935000D01*
X162877500Y-114935000D02*
X162877500Y-100965000D01*
X181927500Y-100965000D02*
X195897500Y-100965000D01*
X195897500Y-100965000D02*
X195897500Y-114935000D01*
X195897500Y-114935000D02*
X181927500Y-114935000D01*
X181927500Y-114935000D02*
X181927500Y-100965000D01*
X200977500Y-100965000D02*
X214947500Y-100965000D01*
X214947500Y-100965000D02*
X214947500Y-114935000D01*
X214947500Y-114935000D02*
X200977500Y-114935000D01*
X200977500Y-114935000D02*
X200977500Y-100965000D01*
X220027500Y-100965000D02*
X233997500Y-100965000D01*
X233997500Y-100965000D02*
X233997500Y-114935000D01*
X233997500Y-114935000D02*
X220027500Y-114935000D01*
X220027500Y-114935000D02*
X220027500Y-100965000D01*
X239077500Y-100965000D02*
X253047500Y-100965000D01*
X253047500Y-100965000D02*
X253047500Y-114935000D01*
X253047500Y-114935000D02*
X239077500Y-114935000D01*
X239077500Y-114935000D02*
X239077500Y-100965000D01*
X258127500Y-100965000D02*
X272097500Y-100965000D01*
X272097500Y-100965000D02*
X272097500Y-114935000D01*
X272097500Y-114935000D02*
X258127500Y-114935000D01*
X258127500Y-114935000D02*
X258127500Y-100965000D01*
X293846250Y-100965000D02*
X307816250Y-100965000D01*
X307816250Y-100965000D02*
X307816250Y-103073200D01*
X307816250Y-103073200D02*
X309441850Y-103073200D01*
X309441850Y-103073200D02*
X309441850Y-102260400D01*
X309441850Y-102260400D02*
X316096650Y-102260400D01*
X316096650Y-102260400D02*
X316096650Y-105664000D01*
X316096650Y-105664000D02*
X316960250Y-105664000D01*
X316960250Y-105664000D02*
X316960250Y-108458000D01*
X316960250Y-108458000D02*
X316096650Y-108458000D01*
X316096650Y-108458000D02*
X316096650Y-114554000D01*
X316096650Y-114554000D02*
X315055250Y-114554000D01*
X315055250Y-114554000D02*
X315055250Y-115722400D01*
X315055250Y-115722400D02*
X310483250Y-115722400D01*
X310483250Y-115722400D02*
X310483250Y-114554000D01*
X310483250Y-114554000D02*
X309441850Y-114554000D01*
X309441850Y-114554000D02*
X309441850Y-113766600D01*
X309441850Y-113766600D02*
X307816250Y-113766600D01*
X307816250Y-113766600D02*
X307816250Y-114935000D01*
X307816250Y-114935000D02*
X293846250Y-114935000D01*
X293846250Y-114935000D02*
X293846250Y-113766600D01*
X293846250Y-113766600D02*
X292220650Y-113766600D01*
X292220650Y-113766600D02*
X292220650Y-114554000D01*
X292220650Y-114554000D02*
X291179250Y-114554000D01*
X291179250Y-114554000D02*
X291179250Y-115722400D01*
X291179250Y-115722400D02*
X286607250Y-115722400D01*
X286607250Y-115722400D02*
X286607250Y-114554000D01*
X286607250Y-114554000D02*
X285565850Y-114554000D01*
X285565850Y-114554000D02*
X285565850Y-108458000D01*
X285565850Y-108458000D02*
X284702250Y-108458000D01*
X284702250Y-108458000D02*
X284702250Y-105664000D01*
X284702250Y-105664000D02*
X285565850Y-105664000D01*
X285565850Y-105664000D02*
X285565850Y-102260400D01*
X285565850Y-102260400D02*
X292220650Y-102260400D01*
X292220650Y-102260400D02*
X292220650Y-103073200D01*
X292220650Y-103073200D02*
X293846250Y-103073200D01*
X293846250Y-103073200D02*
X293846250Y-100965000D01*
X50958750Y-81915000D02*
X64928750Y-81915000D01*
X64928750Y-81915000D02*
X64928750Y-95885000D01*
X64928750Y-95885000D02*
X50958750Y-95885000D01*
X50958750Y-95885000D02*
X50958750Y-81915000D01*
X77152500Y-81915000D02*
X91122500Y-81915000D01*
X91122500Y-81915000D02*
X91122500Y-95885000D01*
X91122500Y-95885000D02*
X77152500Y-95885000D01*
X77152500Y-95885000D02*
X77152500Y-81915000D01*
X96202500Y-81915000D02*
X110172500Y-81915000D01*
X110172500Y-81915000D02*
X110172500Y-95885000D01*
X110172500Y-95885000D02*
X96202500Y-95885000D01*
X96202500Y-95885000D02*
X96202500Y-81915000D01*
X115252500Y-81915000D02*
X129222500Y-81915000D01*
X129222500Y-81915000D02*
X129222500Y-95885000D01*
X129222500Y-95885000D02*
X115252500Y-95885000D01*
X115252500Y-95885000D02*
X115252500Y-81915000D01*
X134302500Y-81915000D02*
X148272500Y-81915000D01*
X148272500Y-81915000D02*
X148272500Y-95885000D01*
X148272500Y-95885000D02*
X134302500Y-95885000D01*
X134302500Y-95885000D02*
X134302500Y-81915000D01*
X153352500Y-81915000D02*
X167322500Y-81915000D01*
X167322500Y-81915000D02*
X167322500Y-95885000D01*
X167322500Y-95885000D02*
X153352500Y-95885000D01*
X153352500Y-95885000D02*
X153352500Y-81915000D01*
X172402500Y-81915000D02*
X186372500Y-81915000D01*
X186372500Y-81915000D02*
X186372500Y-95885000D01*
X186372500Y-95885000D02*
X172402500Y-95885000D01*
X172402500Y-95885000D02*
X172402500Y-81915000D01*
X191452500Y-81915000D02*
X205422500Y-81915000D01*
X205422500Y-81915000D02*
X205422500Y-95885000D01*
X205422500Y-95885000D02*
X191452500Y-95885000D01*
X191452500Y-95885000D02*
X191452500Y-81915000D01*
X210502500Y-81915000D02*
X224472500Y-81915000D01*
X224472500Y-81915000D02*
X224472500Y-95885000D01*
X224472500Y-95885000D02*
X210502500Y-95885000D01*
X210502500Y-95885000D02*
X210502500Y-81915000D01*
X229552500Y-81915000D02*
X243522500Y-81915000D01*
X243522500Y-81915000D02*
X243522500Y-95885000D01*
X243522500Y-95885000D02*
X229552500Y-95885000D01*
X229552500Y-95885000D02*
X229552500Y-81915000D01*
X248602500Y-81915000D02*
X262572500Y-81915000D01*
X262572500Y-81915000D02*
X262572500Y-95885000D01*
X262572500Y-95885000D02*
X248602500Y-95885000D01*
X248602500Y-95885000D02*
X248602500Y-81915000D01*
X267652500Y-81915000D02*
X281622500Y-81915000D01*
X281622500Y-81915000D02*
X281622500Y-95885000D01*
X281622500Y-95885000D02*
X267652500Y-95885000D01*
X267652500Y-95885000D02*
X267652500Y-81915000D01*
X298608750Y-81915000D02*
X312578750Y-81915000D01*
X312578750Y-81915000D02*
X312578750Y-84023200D01*
X312578750Y-84023200D02*
X314204350Y-84023200D01*
X314204350Y-84023200D02*
X314204350Y-83210400D01*
X314204350Y-83210400D02*
X320859150Y-83210400D01*
X320859150Y-83210400D02*
X320859150Y-86614000D01*
X320859150Y-86614000D02*
X321722750Y-86614000D01*
X321722750Y-86614000D02*
X321722750Y-89408000D01*
X321722750Y-89408000D02*
X320859150Y-89408000D01*
X320859150Y-89408000D02*
X320859150Y-95504000D01*
X320859150Y-95504000D02*
X319817750Y-95504000D01*
X319817750Y-95504000D02*
X319817750Y-96672400D01*
X319817750Y-96672400D02*
X315245750Y-96672400D01*
X315245750Y-96672400D02*
X315245750Y-95504000D01*
X315245750Y-95504000D02*
X314204350Y-95504000D01*
X314204350Y-95504000D02*
X314204350Y-94716600D01*
X314204350Y-94716600D02*
X312578750Y-94716600D01*
X312578750Y-94716600D02*
X312578750Y-95885000D01*
X312578750Y-95885000D02*
X298608750Y-95885000D01*
X298608750Y-95885000D02*
X298608750Y-94716600D01*
X298608750Y-94716600D02*
X296983150Y-94716600D01*
X296983150Y-94716600D02*
X296983150Y-95504000D01*
X296983150Y-95504000D02*
X295941750Y-95504000D01*
X295941750Y-95504000D02*
X295941750Y-96672400D01*
X295941750Y-96672400D02*
X291369750Y-96672400D01*
X291369750Y-96672400D02*
X291369750Y-95504000D01*
X291369750Y-95504000D02*
X290328350Y-95504000D01*
X290328350Y-95504000D02*
X290328350Y-89408000D01*
X290328350Y-89408000D02*
X289464750Y-89408000D01*
X289464750Y-89408000D02*
X289464750Y-86614000D01*
X289464750Y-86614000D02*
X290328350Y-86614000D01*
X290328350Y-86614000D02*
X290328350Y-83210400D01*
X290328350Y-83210400D02*
X296983150Y-83210400D01*
X296983150Y-83210400D02*
X296983150Y-84023200D01*
X296983150Y-84023200D02*
X298608750Y-84023200D01*
X298608750Y-84023200D02*
X298608750Y-81915000D01*
X48577500Y-62865000D02*
X62547500Y-62865000D01*
X62547500Y-62865000D02*
X62547500Y-76835000D01*
X62547500Y-76835000D02*
X48577500Y-76835000D01*
X48577500Y-76835000D02*
X48577500Y-62865000D01*
X72390000Y-62865000D02*
X86360000Y-62865000D01*
X86360000Y-62865000D02*
X86360000Y-76835000D01*
X86360000Y-76835000D02*
X72390000Y-76835000D01*
X72390000Y-76835000D02*
X72390000Y-62865000D01*
X91440000Y-62865000D02*
X105410000Y-62865000D01*
X105410000Y-62865000D02*
X105410000Y-76835000D01*
X105410000Y-76835000D02*
X91440000Y-76835000D01*
X91440000Y-76835000D02*
X91440000Y-62865000D01*
X110490000Y-62865000D02*
X124460000Y-62865000D01*
X124460000Y-62865000D02*
X124460000Y-76835000D01*
X124460000Y-76835000D02*
X110490000Y-76835000D01*
X110490000Y-76835000D02*
X110490000Y-62865000D01*
X129540000Y-62865000D02*
X143510000Y-62865000D01*
X143510000Y-62865000D02*
X143510000Y-76835000D01*
X143510000Y-76835000D02*
X129540000Y-76835000D01*
X129540000Y-76835000D02*
X129540000Y-62865000D01*
X148590000Y-62865000D02*
X162560000Y-62865000D01*
X162560000Y-62865000D02*
X162560000Y-76835000D01*
X162560000Y-76835000D02*
X148590000Y-76835000D01*
X148590000Y-76835000D02*
X148590000Y-62865000D01*
X167640000Y-62865000D02*
X181610000Y-62865000D01*
X181610000Y-62865000D02*
X181610000Y-76835000D01*
X181610000Y-76835000D02*
X167640000Y-76835000D01*
X167640000Y-76835000D02*
X167640000Y-62865000D01*
X186690000Y-62865000D02*
X200660000Y-62865000D01*
X200660000Y-62865000D02*
X200660000Y-76835000D01*
X200660000Y-76835000D02*
X186690000Y-76835000D01*
X186690000Y-76835000D02*
X186690000Y-62865000D01*
X205740000Y-62865000D02*
X219710000Y-62865000D01*
X219710000Y-62865000D02*
X219710000Y-76835000D01*
X219710000Y-76835000D02*
X205740000Y-76835000D01*
X205740000Y-76835000D02*
X205740000Y-62865000D01*
X224790000Y-62865000D02*
X238760000Y-62865000D01*
X238760000Y-62865000D02*
X238760000Y-76835000D01*
X238760000Y-76835000D02*
X224790000Y-76835000D01*
X224790000Y-76835000D02*
X224790000Y-62865000D01*
X243840000Y-62865000D02*
X257810000Y-62865000D01*
X257810000Y-62865000D02*
X257810000Y-76835000D01*
X257810000Y-76835000D02*
X243840000Y-76835000D01*
X243840000Y-76835000D02*
X243840000Y-62865000D01*
X262890000Y-62865000D02*
X276860000Y-62865000D01*
X276860000Y-62865000D02*
X276860000Y-76835000D01*
X276860000Y-76835000D02*
X262890000Y-76835000D01*
X262890000Y-76835000D02*
X262890000Y-62865000D01*
X281940000Y-62865000D02*
X295910000Y-62865000D01*
X295910000Y-62865000D02*
X295910000Y-76835000D01*
X295910000Y-76835000D02*
X281940000Y-76835000D01*
X281940000Y-76835000D02*
X281940000Y-62865000D01*
X305752500Y-62865000D02*
X319722500Y-62865000D01*
X319722500Y-62865000D02*
X319722500Y-76835000D01*
X319722500Y-76835000D02*
X305752500Y-76835000D01*
X305752500Y-76835000D02*
X305752500Y-62865000D01*
X43815000Y-43815000D02*
X57785000Y-43815000D01*
X57785000Y-43815000D02*
X57785000Y-57785000D01*
X57785000Y-57785000D02*
X43815000Y-57785000D01*
X43815000Y-57785000D02*
X43815000Y-43815000D01*
X62865000Y-43815000D02*
X76835000Y-43815000D01*
X76835000Y-43815000D02*
X76835000Y-57785000D01*
X76835000Y-57785000D02*
X62865000Y-57785000D01*
X62865000Y-57785000D02*
X62865000Y-43815000D01*
X81915000Y-43815000D02*
X95885000Y-43815000D01*
X95885000Y-43815000D02*
X95885000Y-57785000D01*
X95885000Y-57785000D02*
X81915000Y-57785000D01*
X81915000Y-57785000D02*
X81915000Y-43815000D01*
X100965000Y-43815000D02*
X114935000Y-43815000D01*
X114935000Y-43815000D02*
X114935000Y-57785000D01*
X114935000Y-57785000D02*
X100965000Y-57785000D01*
X100965000Y-57785000D02*
X100965000Y-43815000D01*
X120015000Y-43815000D02*
X133985000Y-43815000D01*
X133985000Y-43815000D02*
X133985000Y-57785000D01*
X133985000Y-57785000D02*
X120015000Y-57785000D01*
X120015000Y-57785000D02*
X120015000Y-43815000D01*
X139065000Y-43815000D02*
X153035000Y-43815000D01*
X153035000Y-43815000D02*
X153035000Y-57785000D01*
X153035000Y-57785000D02*
X139065000Y-57785000D01*
X139065000Y-57785000D02*
X139065000Y-43815000D01*
X158115000Y-43815000D02*
X172085000Y-43815000D01*
X172085000Y-43815000D02*
X172085000Y-57785000D01*
X172085000Y-57785000D02*
X158115000Y-57785000D01*
X158115000Y-57785000D02*
X158115000Y-43815000D01*
X177165000Y-43815000D02*
X191135000Y-43815000D01*
X191135000Y-43815000D02*
X191135000Y-57785000D01*
X191135000Y-57785000D02*
X177165000Y-57785000D01*
X177165000Y-57785000D02*
X177165000Y-43815000D01*
X196215000Y-43815000D02*
X210185000Y-43815000D01*
X210185000Y-43815000D02*
X210185000Y-57785000D01*
X210185000Y-57785000D02*
X196215000Y-57785000D01*
X196215000Y-57785000D02*
X196215000Y-43815000D01*
X215265000Y-43815000D02*
X229235000Y-43815000D01*
X229235000Y-43815000D02*
X229235000Y-57785000D01*
X229235000Y-57785000D02*
X215265000Y-57785000D01*
X215265000Y-57785000D02*
X215265000Y-43815000D01*
X234315000Y-43815000D02*
X248285000Y-43815000D01*
X248285000Y-43815000D02*
X248285000Y-57785000D01*
X248285000Y-57785000D02*
X234315000Y-57785000D01*
X234315000Y-57785000D02*
X234315000Y-43815000D01*
X253365000Y-43815000D02*
X267335000Y-43815000D01*
X267335000Y-43815000D02*
X267335000Y-57785000D01*
X267335000Y-57785000D02*
X253365000Y-57785000D01*
X253365000Y-57785000D02*
X253365000Y-43815000D01*
X272415000Y-43815000D02*
X286385000Y-43815000D01*
X286385000Y-43815000D02*
X286385000Y-57785000D01*
X286385000Y-57785000D02*
X272415000Y-57785000D01*
X272415000Y-57785000D02*
X272415000Y-43815000D01*
X300990000Y-43815000D02*
X314960000Y-43815000D01*
X314960000Y-43815000D02*
X314960000Y-45923200D01*
X314960000Y-45923200D02*
X316585600Y-45923200D01*
X316585600Y-45923200D02*
X316585600Y-45110400D01*
X316585600Y-45110400D02*
X323240400Y-45110400D01*
X323240400Y-45110400D02*
X323240400Y-48514000D01*
X323240400Y-48514000D02*
X324104000Y-48514000D01*
X324104000Y-48514000D02*
X324104000Y-51308000D01*
X324104000Y-51308000D02*
X323240400Y-51308000D01*
X323240400Y-51308000D02*
X323240400Y-57404000D01*
X323240400Y-57404000D02*
X322199000Y-57404000D01*
X322199000Y-57404000D02*
X322199000Y-58572400D01*
X322199000Y-58572400D02*
X317627000Y-58572400D01*
X317627000Y-58572400D02*
X317627000Y-57404000D01*
X317627000Y-57404000D02*
X316585600Y-57404000D01*
X316585600Y-57404000D02*
X316585600Y-56616600D01*
X316585600Y-56616600D02*
X314960000Y-56616600D01*
X314960000Y-56616600D02*
X314960000Y-57785000D01*
X314960000Y-57785000D02*
X300990000Y-57785000D01*
X300990000Y-57785000D02*
X300990000Y-56616600D01*
X300990000Y-56616600D02*
X299364400Y-56616600D01*
X299364400Y-56616600D02*
X299364400Y-57404000D01*
X299364400Y-57404000D02*
X298323000Y-57404000D01*
X298323000Y-57404000D02*
X298323000Y-58572400D01*
X298323000Y-58572400D02*
X293751000Y-58572400D01*
X293751000Y-58572400D02*
X293751000Y-57404000D01*
X293751000Y-57404000D02*
X292709600Y-57404000D01*
X292709600Y-57404000D02*
X292709600Y-51308000D01*
X292709600Y-51308000D02*
X291846000Y-51308000D01*
X291846000Y-51308000D02*
X291846000Y-48514000D01*
X291846000Y-48514000D02*
X292709600Y-48514000D01*
X292709600Y-48514000D02*
X292709600Y-45110400D01*
X292709600Y-45110400D02*
X299364400Y-45110400D01*
X299364400Y-45110400D02*
X299364400Y-45923200D01*
X299364400Y-45923200D02*
X300990000Y-45923200D01*
X300990000Y-45923200D02*
X300990000Y-43815000D01*
X165258750Y-120015000D02*
X179228750Y-120015000D01*
X179228750Y-120015000D02*
X179228750Y-124714000D01*
X179228750Y-124714000D02*
X218954350Y-124714000D01*
X218954350Y-124714000D02*
X218954350Y-121310400D01*
X218954350Y-121310400D02*
X225609150Y-121310400D01*
X225609150Y-121310400D02*
X225609150Y-124714000D01*
X225609150Y-124714000D02*
X226472750Y-124714000D01*
X226472750Y-124714000D02*
X226472750Y-127508000D01*
X226472750Y-127508000D02*
X225609150Y-127508000D01*
X225609150Y-127508000D02*
X225609150Y-133604000D01*
X225609150Y-133604000D02*
X224567750Y-133604000D01*
X224567750Y-133604000D02*
X224567750Y-134772400D01*
X224567750Y-134772400D02*
X219995750Y-134772400D01*
X219995750Y-134772400D02*
X219995750Y-133604000D01*
X219995750Y-133604000D02*
X218954350Y-133604000D01*
X218954350Y-133604000D02*
X218954350Y-129286000D01*
X218954350Y-129286000D02*
X179228750Y-129286000D01*
X179228750Y-129286000D02*
X179228750Y-133985000D01*
X179228750Y-133985000D02*
X165258750Y-133985000D01*
X165258750Y-133985000D02*
X165258750Y-129286000D01*
X165258750Y-129286000D02*
X125533150Y-129286000D01*
X125533150Y-129286000D02*
X125533150Y-133604000D01*
X125533150Y-133604000D02*
X124491750Y-133604000D01*
X124491750Y-133604000D02*
X124491750Y-134772400D01*
X124491750Y-134772400D02*
X119919750Y-134772400D01*
X119919750Y-134772400D02*
X119919750Y-133604000D01*
X119919750Y-133604000D02*
X118878350Y-133604000D01*
X118878350Y-133604000D02*
X118878350Y-127508000D01*
X118878350Y-127508000D02*
X118014750Y-127508000D01*
X118014750Y-127508000D02*
X118014750Y-124714000D01*
X118014750Y-124714000D02*
X118878350Y-124714000D01*
X118878350Y-124714000D02*
X118878350Y-121310400D01*
X118878350Y-121310400D02*
X125533150Y-121310400D01*
X125533150Y-121310400D02*
X125533150Y-124714000D01*
X125533150Y-124714000D02*
X165258750Y-124714000D01*
X165258750Y-124714000D02*
X165258750Y-120015000D01*
M02*
